<svg width="31" height="24" viewBox="0 0 31 24" fill="none" xmlns="http://www.w3.org/2000/svg">
<path d="M4.19784 17.9715C2.98519 18.6214 -0.194338 19.9483 1.7422 21.6088C2.68819 22.4199 3.74177 23 5.06638 23H12.6249C13.9495 23 15.0031 22.4199 15.9491 21.6088C17.8856 19.9483 14.7061 18.6214 13.4934 17.9715C10.6497 16.4476 7.04151 16.4476 4.19784 17.9715Z" fill="#0A2A4C"/>
<path d="M12.9599 9.11429C12.9599 11.3865 11.1179 13.2286 8.84564 13.2286C6.57338 13.2286 4.73135 11.3865 4.73135 9.11429C4.73135 6.84203 6.57338 5 8.84564 5C11.1179 5 12.9599 6.84203 12.9599 9.11429Z" fill="#0A2A4C"/>
<path d="M17.6261 17.9715C16.4134 18.6214 13.2339 19.9483 15.1704 21.6088C16.1164 22.4199 17.17 23 18.4946 23H26.0531C27.3777 23 28.4313 22.4199 29.3773 21.6088C31.3139 19.9483 28.1343 18.6214 26.9217 17.9715C24.078 16.4476 20.4697 16.4476 17.6261 17.9715Z" fill="#0A2A4C"/>
<path d="M26.3881 9.11429C26.3881 11.3865 24.5461 13.2286 22.2739 13.2286C20.0016 13.2286 18.1596 11.3865 18.1596 9.11429C18.1596 6.84203 20.0016 5 22.2739 5C24.5461 5 26.3881 6.84203 26.3881 9.11429Z" fill="#0A2A4C"/>
<path d="M10.1213 16.1112C8.7458 16.743 5.13939 18.0331 7.33593 19.6474C8.40892 20.436 9.60396 21 11.1064 21H19.6798C21.1822 21 22.3772 20.436 23.4502 19.6474C25.6468 18.0331 22.0404 16.743 20.6649 16.1112C17.4394 14.6296 13.3467 14.6296 10.1213 16.1112Z" fill="#0A2A4C"/>
<path d="M20.0597 7.5C20.0597 9.70914 17.9704 11.5 15.3931 11.5C12.8157 11.5 10.7264 9.70914 10.7264 7.5C10.7264 5.29086 12.8157 3.5 15.3931 3.5C17.9704 3.5 20.0597 5.29086 20.0597 7.5Z" fill="#0A2A4C"/>
<path d="M10.1213 16.1112C8.7458 16.743 5.13939 18.0331 7.33593 19.6474C8.40892 20.436 9.60396 21 11.1064 21H19.6798C21.1822 21 22.3772 20.436 23.4502 19.6474C25.6468 18.0331 22.0404 16.743 20.6649 16.1112C17.4394 14.6296 13.3467 14.6296 10.1213 16.1112Z" stroke="white" stroke-width="1.5"/>
<path d="M20.0597 7.5C20.0597 9.70914 17.9704 11.5 15.3931 11.5C12.8157 11.5 10.7264 9.70914 10.7264 7.5C10.7264 5.29086 12.8157 3.5 15.3931 3.5C17.9704 3.5 20.0597 5.29086 20.0597 7.5Z" stroke="white" stroke-width="1.5"/>
</svg>
