<svg width="25" height="26" viewBox="0 0 25 26" fill="none" xmlns="http://www.w3.org/2000/svg">
<path d="M7.76165 17.7207L18.0068 16.8189C21.19 16.5537 21.9046 15.8583 22.2574 12.6837L23 6H5.03669L7.76165 16.5889C7.85845 16.9651 7.85611 17.3536 7.76165 17.7207Z" fill="#0A2A4C"/>
<path d="M18.3333 24.6667C19.622 24.6667 20.6667 23.622 20.6667 22.3333C20.6667 21.0447 19.622 20 18.3333 20C17.0447 20 16 21.0447 16 22.3333C16 23.622 17.0447 24.6667 18.3333 24.6667Z" fill="#0A2A4C"/>
<path d="M5.5 24.6667C6.78866 24.6667 7.83333 23.622 7.83333 22.3333C7.83333 21.0447 6.78866 20 5.5 20C4.21134 20 3.16667 21.0447 3.16667 22.3333C3.16667 23.622 4.21134 24.6667 5.5 24.6667Z" fill="#0A2A4C"/>
<path d="M5.03669 6H24.1667M5.03669 6H23L22.2574 12.6837C21.9046 15.8583 21.19 16.5537 18.0068 16.8189L7.76165 17.7207C7.85611 17.3536 7.85845 16.9651 7.76165 16.5889M5.03669 6L7.76165 16.5889M7.83333 22.3333C7.83333 23.622 6.78866 24.6667 5.5 24.6667C4.21134 24.6667 3.16667 23.622 3.16667 22.3333C3.16667 21.0447 4.21134 20 5.5 20C6.78866 20 7.83333 21.0447 7.83333 22.3333ZM7.83333 22.3333H16M16 22.3333C16 23.622 17.0447 24.6667 18.3333 24.6667C19.622 24.6667 20.6667 23.622 20.6667 22.3333C20.6667 21.0447 19.622 20 18.3333 20C17.0447 20 16 21.0447 16 22.3333ZM0.833374 1.33301H1.96037C3.0625 1.33301 4.0232 2.0617 4.29051 3.10043L7.76165 16.5889M7.76165 16.5889C7.93706 17.2706 7.78694 17.9927 7.35299 18.5549L6.23753 19.9997" stroke="#0A2A4C" stroke-width="1.5" stroke-linecap="round"/>
</svg>
