<svg width="25" height="24" viewBox="0 0 25 24" fill="none" xmlns="http://www.w3.org/2000/svg">
<path d="M2.75 6C2.75 4.11438 2.75 3.17157 3.33579 2.58579C3.92157 2 4.86438 2 6.75 2C8.63562 2 9.57843 2 10.1642 2.58579C10.75 3.17157 10.75 4.11438 10.75 6V8C10.75 9.88562 10.75 10.8284 10.1642 11.4142C9.57843 12 8.63562 12 6.75 12C4.86438 12 3.92157 12 3.33579 11.4142C2.75 10.8284 2.75 9.88562 2.75 8V6Z" fill="#0A2A4C"/>
<path d="M2.75 19C2.75 18.0681 2.75 17.6022 2.90224 17.2346C3.10523 16.7446 3.49458 16.3552 3.98463 16.1522C4.35218 16 4.81812 16 5.75 16H7.75C8.68188 16 9.14782 16 9.51537 16.1522C10.0054 16.3552 10.3948 16.7446 10.5978 17.2346C10.75 17.6022 10.75 18.0681 10.75 19C10.75 19.9319 10.75 20.3978 10.5978 20.7654C10.3948 21.2554 10.0054 21.6448 9.51537 21.8478C9.14782 22 8.68188 22 7.75 22H5.75C4.81812 22 4.35218 22 3.98463 21.8478C3.49458 21.6448 3.10523 21.2554 2.90224 20.7654C2.75 20.3978 2.75 19.9319 2.75 19Z" fill="#0A2A4C"/>
<path d="M14.75 16C14.75 14.1144 14.75 13.1716 15.3358 12.5858C15.9216 12 16.8644 12 18.75 12C20.6356 12 21.5784 12 22.1642 12.5858C22.75 13.1716 22.75 14.1144 22.75 16V18C22.75 19.8856 22.75 20.8284 22.1642 21.4142C21.5784 22 20.6356 22 18.75 22C16.8644 22 15.9216 22 15.3358 21.4142C14.75 20.8284 14.75 19.8856 14.75 18V16Z" fill="#0A2A4C"/>
<path d="M14.75 5C14.75 4.06812 14.75 3.60218 14.9022 3.23463C15.1052 2.74458 15.4946 2.35523 15.9846 2.15224C16.3522 2 16.8181 2 17.75 2H19.75C20.6819 2 21.1478 2 21.5154 2.15224C22.0054 2.35523 22.3948 2.74458 22.5978 3.23463C22.75 3.60218 22.75 4.06812 22.75 5C22.75 5.93188 22.75 6.39782 22.5978 6.76537C22.3948 7.25542 22.0054 7.64477 21.5154 7.84776C21.1478 8 20.6819 8 19.75 8H17.75C16.8181 8 16.3522 8 15.9846 7.84776C15.4946 7.64477 15.1052 7.25542 14.9022 6.76537C14.75 6.39782 14.75 5.93188 14.75 5Z" fill="#0A2A4C"/>
</svg>
