<svg width="41" height="41" viewBox="0 0 41 41" fill="none" xmlns="http://www.w3.org/2000/svg">
<path d="M26.9445 6.80067C28.4885 5.55314 30.2178 5.4774 32.1073 5.50389C33.0847 5.51759 33.5733 5.52445 33.9653 5.67647C34.5873 5.91767 35.0823 6.41274 35.3235 7.03469C35.4755 7.42669 35.4823 7.91534 35.4962 8.89262C35.5227 10.7821 35.4468 12.5114 34.1993 14.0554C33.1488 15.3556 31.3432 16.035 30.4743 17.4702C29.811 18.5658 30.12 19.7005 30.405 20.8682L32.538 29.6103C32.9632 31.3525 32.6397 32.4692 31.4215 33.6873C30.7733 34.3355 30.2342 34.3027 29.7085 33.465L23.2712 23.2082L20.1968 25.6518C19.0822 26.538 18.5248 26.981 18.232 27.6045C17.546 29.0647 17.9815 31.2578 18.0037 32.841C18.016 33.716 17.2598 35.4407 16.1899 35.4988C15.5293 35.5348 15.3047 34.7447 15.0914 34.2597L13.0372 29.5907C12.546 28.4742 12.5259 28.454 11.4093 27.9628L6.74025 25.9087C6.2553 25.6953 5.46524 25.4707 5.50119 24.8102C5.55942 23.7402 7.28393 22.984 8.15893 22.9963C9.7422 23.0185 11.9354 23.454 13.3956 22.768C14.019 22.4752 14.4621 21.9178 15.3481 20.8032L17.7918 17.7288L7.53505 11.2915C6.69742 10.7658 6.66454 10.2266 7.31259 9.57859C8.53084 8.36034 9.64752 8.03691 11.3896 8.46197L20.1318 10.5951C21.2995 10.88 22.4342 11.1891 23.5298 10.5257C24.965 9.65685 25.6443 7.85124 26.9445 6.80067Z" fill="#4DA2FE"/>
</svg>
