<svg width="17" height="20" viewBox="0 0 17 20" fill="none" xmlns="http://www.w3.org/2000/svg">
<path d="M8.50438 4.19119C8.53191 3.35198 8.76724 2.11571 9.58623 1.30354C10.3464 0.549647 11.2719 0.182216 11.8483 0.0142415C12.0709 -0.0506072 12.2844 0.114226 12.2734 0.34198C12.2348 1.14535 12.0197 2.34362 11.4649 2.98556C10.9418 3.59069 10.1004 4.39315 8.86801 4.52816C8.66628 4.55026 8.49784 4.39046 8.50438 4.19119Z" fill="black"/>
<path d="M10.6147 19.5514C11.2065 19.7741 11.8049 19.9993 12.3464 19.9993C13.5049 19.9993 16.8782 17.3738 16.9997 14.6469C17.0059 14.5068 16.9207 14.3817 16.7962 14.3133C15.9382 13.8416 14.537 12.6672 14.4882 10.9587C14.4313 8.96754 15.4491 7.38606 16.2193 6.73187C16.3927 6.58464 16.4522 6.32503 16.2975 6.15901C15.5967 5.40723 14.1868 4.37313 12.9005 4.39852C11.9646 4.41699 11.1214 4.75942 10.3978 5.05327C9.84268 5.27872 9.35798 5.47556 8.95589 5.47556C8.57505 5.47556 8.11784 5.27998 7.59309 5.05551C6.88642 4.75321 6.05725 4.39852 5.12711 4.39852C3.40419 4.39852 7.70614e-06 5.80193 0 11.2198C-4.08517e-06 14.0919 3.01838 20.0754 5.56539 19.9993C6.11538 19.9993 6.70315 19.7756 7.2864 19.5536C7.86075 19.335 8.43071 19.1181 8.95589 19.1181C9.46299 19.1181 10.0357 19.3336 10.6147 19.5514Z" fill="black"/>
</svg>
