<svg width="41" height="41" viewBox="0 0 41 41" fill="none" xmlns="http://www.w3.org/2000/svg">
<path d="M34.2312 23.834C36.0827 23.834 37.4715 25.6348 37.1083 27.565L36.6668 29.9117C36.2378 32.1923 34.3542 33.834 32.1663 33.834" fill="#4DA2FE"/>
<path d="M34.2312 23.834C36.0827 23.834 37.4715 25.6348 37.1083 27.565L36.6668 29.9117C36.2378 32.1923 34.3542 33.834 32.1663 33.834H29.6663L28.833 23.834H34.2312Z" fill="#4DA2FE"/>
<path d="M6.76822 23.834C4.91659 23.834 3.52785 25.6348 3.89099 27.565L4.33245 29.9117C4.76152 32.1923 6.64519 33.834 8.833 33.834H10.4997L12.1663 23.834H6.76822Z" fill="#4DA2FE"/>
<path fill-rule="evenodd" clip-rule="evenodd" d="M31.8182 25.8285L30.949 18.0007L22.9997 18.0006V19.6672H17.9997V18.0005L10.0503 18.0005L9.18122 25.8285C8.71465 31.1323 8.48135 33.7842 10.0503 35.4757C11.6192 37.1673 14.3122 37.1673 19.698 37.1673H21.3013C26.6872 37.1673 29.3802 37.1673 30.949 35.4757C32.518 33.7842 32.2847 31.1323 31.8182 25.8285Z" fill="#4DA2FE"/>
<path d="M25.4997 8.83398C25.4997 6.07257 23.2612 3.83398 20.4997 3.83398C17.7382 3.83398 15.4997 6.07257 15.4997 8.83398V11.334H25.4997V8.83398Z" fill="#4DA2FE"/>
<path fill-rule="evenodd" clip-rule="evenodd" d="M9.05899 10.8412C8.64372 11.7443 8.8522 12.924 9.26917 15.2835L9.35437 15.7657C9.51603 16.6804 9.5969 17.1381 9.7564 17.5588C10.032 18.2857 10.4823 18.9425 11.0721 19.4778C11.4135 19.7877 11.8226 20.045 12.6409 20.5595C13.41 21.043 13.7949 21.285 14.2014 21.4748C14.9032 21.8027 15.658 22.0182 16.4347 22.1127C16.8847 22.1673 17.347 22.1673 18.2715 22.1673H22.7278C23.6523 22.1673 24.1147 22.1673 24.5647 22.1127C25.3413 22.0182 26.0962 21.8027 26.798 21.4748C27.2045 21.285 27.5892 21.0432 28.3585 20.5595C29.1766 20.045 29.5858 19.7877 29.9272 19.4778C30.517 18.9425 30.9673 18.2857 31.243 17.5588C31.4025 17.138 31.4833 16.6806 31.645 15.7657L31.7302 15.2835C32.1472 12.924 32.3557 11.7443 31.9403 10.8412C31.663 10.2381 31.203 9.72585 30.6178 9.36877C29.7415 8.83398 28.4733 8.83398 25.9372 8.83398H15.0622C12.526 8.83398 11.2578 8.83398 10.3815 9.36877C9.79639 9.72585 9.33625 10.2381 9.05899 10.8412ZM20.9402 18.7786C21.8301 18.5433 22.3607 17.6312 22.1255 16.7413C21.8902 15.8514 20.9781 15.3207 20.0882 15.556L20.0737 15.5598C19.1838 15.7951 18.6531 16.7073 18.8884 17.5972C19.1236 18.4871 20.0358 19.0177 20.9257 18.7825L20.9402 18.7786Z" fill="#4DA2FE"/>
</svg>
