<svg width="41" height="41" viewBox="0 0 41 41" fill="none" xmlns="http://www.w3.org/2000/svg">
<path d="M36.9255 26.3327L32.05 9.84378C31.5812 8.25697 30.108 7.16602 28.4338 7.16602C26.292 7.16602 24.5812 8.92705 24.6703 11.04L25.5003 27.166M37.167 27.9993C37.167 31.221 34.5553 33.8327 31.3337 33.8327C28.112 33.8327 25.5003 31.221 25.5003 27.9993C25.5003 24.7777 28.112 22.166 31.3337 22.166C34.5553 22.166 37.167 24.7777 37.167 27.9993Z" fill="#4DA2FE"/>
<path d="M37.167 27.9993C37.167 31.221 34.5553 33.8327 31.3337 33.8327C28.112 33.8327 25.5003 31.221 25.5003 27.9993C25.5003 24.7777 28.112 22.166 31.3337 22.166C34.5553 22.166 37.167 24.7777 37.167 27.9993Z" fill="#4DA2FE"/>
<path d="M36.9255 26.3327L32.05 9.84378C31.5812 8.25697 30.108 7.16602 28.4338 7.16602C26.292 7.16602 24.5812 8.92705 24.6703 11.04L25.5003 27.166M37.167 27.9993C37.167 31.221 34.5553 33.8327 31.3337 33.8327C28.112 33.8327 25.5003 31.221 25.5003 27.9993C25.5003 24.7777 28.112 22.166 31.3337 22.166C34.5553 22.166 37.167 24.7777 37.167 27.9993Z" stroke="white" stroke-width="1.5" stroke-linecap="round" stroke-linejoin="round"/>
<path d="M17.1667 13.834H24.5H17.1667ZM15.5 27.1673H25.5H15.5Z" fill="#4DA2FE"/>
<path d="M17.1667 13.834H24.5L25.5 27.1673H15.5L16.5 13.834H17.1667Z" fill="#4DA2FE"/>
<path d="M17.1667 13.834H24.5H17.1667ZM15.5 27.1673H25.5H15.5Z" stroke="white" stroke-width="1.5" stroke-linecap="round" stroke-linejoin="round"/>
<path d="M17.1667 13.834H24.5L25.5 27.1673H15.5L16.5 13.834H17.1667Z" stroke="white" stroke-width="1.5" stroke-linecap="round" stroke-linejoin="round"/>
<path d="M15.4996 28C15.4996 31.2217 12.888 33.8327 9.66634 33.8327C6.44467 33.8327 3.83301 31.221 3.83301 27.9993C3.83301 27.4198 3.91752 26.86 4.07489 26.3316C4.79235 23.9226 7.02421 22.166 9.66634 22.166C12.888 22.166 15.4996 24.7783 15.4996 28Z" fill="#4DA2FE"/>
<path d="M12.5669 7.16602C10.8928 7.16602 9.41954 8.25697 8.95079 9.84378L4.07489 26.3316C4.79235 23.9226 7.02421 22.166 9.66634 22.166C12.888 22.166 15.4996 24.7783 15.4996 28L16.3304 11.04C16.4196 8.92705 14.7088 7.16602 12.5669 7.16602Z" fill="#4DA2FE"/>
<path d="M4.07457 26.3327L4.07489 26.3316M15.4996 28L16.3304 11.04C16.4196 8.92705 14.7088 7.16602 12.5669 7.16602C10.8928 7.16602 9.41954 8.25697 8.95079 9.84378L4.07489 26.3316M15.4996 28C15.4996 31.2217 12.888 33.8327 9.66634 33.8327C6.44467 33.8327 3.83301 31.221 3.83301 27.9993C3.83301 27.4198 3.91752 26.86 4.07489 26.3316M15.4996 28C15.4996 24.7783 12.888 22.166 9.66634 22.166C7.02421 22.166 4.79235 23.9226 4.07489 26.3316" stroke="white" stroke-width="1.5" stroke-linecap="round" stroke-linejoin="round"/>
</svg>
