<svg width="33" height="32" viewBox="0 0 33 32" fill="none" xmlns="http://www.w3.org/2000/svg">
<path d="M9.33333 29.3338H24.6666L24.6667 22.6194C24.4661 22.7351 24.2572 22.8383 24.0409 22.9279C23.0608 23.3338 21.8184 23.3338 19.3333 23.3338H8.66667C7.19391 23.3338 6 24.5278 6 26.0005C6 27.8414 7.49239 29.3338 9.33333 29.3338Z" fill="#4DA2FE"/>
<path d="M6 14.2453V26.0005C6 24.5278 7.19391 23.3338 8.66667 23.3338H19.3333C21.8184 23.3338 23.0608 23.3338 24.0409 22.9279C24.2572 22.8383 24.4661 22.7351 24.6667 22.6194C25.6778 22.0356 26.4756 21.132 26.9273 20.0415C27.3333 19.0614 27.3333 17.8189 27.3333 15.3338V2.66699C26.1696 3.24887 25.1976 3.85601 24.1709 4.24638C23.9323 4.33713 23.8129 4.3825 22.6963 4.57985C21.5795 4.77719 20.98 4.76907 19.7811 4.75286C18.4661 4.73507 16.8807 4.66647 15.5788 4.66647C11.5994 4.66647 9.60961 4.66647 8.21193 5.6753C7.74911 6.00938 7.34289 6.41558 7.00883 6.87842C6 8.27609 6 10.2658 6 14.2453Z" fill="#4DA2FE"/>
<path d="M27.3333 30.3338C27.8856 30.3338 28.3333 29.8861 28.3333 29.3338C28.3333 28.7815 27.8856 28.3338 27.3333 28.3338V30.3338ZM7.00883 6.87842L7.81967 7.46368L7.81968 7.46367L7.00883 6.87842ZM8.21193 5.6753L7.62667 4.86445L7.62665 4.86447L8.21193 5.6753ZM19.7811 4.75286L19.7675 5.75277L19.7675 5.75277L19.7811 4.75286ZM22.6963 4.57985L22.8703 5.56459L22.8703 5.56459L22.6963 4.57985ZM24.1709 4.24638L24.5263 5.18109L24.5263 5.18109L24.1709 4.24638ZM27.3333 2.66699H28.3333C28.3333 2.32041 28.1539 1.99855 27.8591 1.81634C27.5642 1.63413 27.1961 1.61757 26.8861 1.77257L27.3333 2.66699ZM26.9273 20.0415L27.8512 20.4242L27.8512 20.4242L26.9273 20.0415ZM24.0409 22.9279L24.4235 23.8518L24.4236 23.8518L24.0409 22.9279ZM9.33333 28.3338C8.04467 28.3338 7 27.2891 7 26.0005H5C5 28.3937 6.9401 30.3338 9.33333 30.3338V28.3338ZM7 26.0005V14.2453H5V26.0005H7ZM7 14.2453C7 12.2334 7.00136 10.8044 7.12034 9.70088C7.23732 8.6159 7.45842 7.96417 7.81967 7.46368L6.19798 6.29316C5.5504 7.19034 5.26709 8.23231 5.13187 9.48648C4.99864 10.7221 5 12.2777 5 14.2453H7ZM7.81968 7.46367C8.0911 7.08763 8.42115 6.75759 8.79721 6.48613L7.62665 4.86447C7.07707 5.26117 6.59469 5.74353 6.19798 6.29317L7.81968 7.46367ZM8.79719 6.48615C9.29769 6.1249 9.94943 5.90379 11.0344 5.78681C12.1379 5.66783 13.5669 5.66647 15.5788 5.66647V3.66647C13.6112 3.66647 12.0556 3.66511 10.82 3.79834C9.56583 3.93356 8.52386 4.21688 7.62667 4.86445L8.79719 6.48615ZM15.5788 5.66647C16.8889 5.66647 18.391 5.73415 19.7675 5.75277L19.7946 3.75295C18.5413 3.736 16.8724 3.66647 15.5788 3.66647V5.66647ZM19.7675 5.75277C20.976 5.76911 21.655 5.77934 22.8703 5.56459L22.5223 3.5951C21.504 3.77504 20.984 3.76904 19.7946 3.75295L19.7675 5.75277ZM22.8703 5.56459C23.9927 5.36622 24.1926 5.30799 24.5263 5.18109L23.8155 3.31166C23.6719 3.36627 23.6331 3.39878 22.5222 3.59511L22.8703 5.56459ZM24.5263 5.18109C25.6091 4.76939 26.7373 4.08308 27.7806 3.56142L26.8861 1.77257C25.6019 2.41467 24.7861 2.94262 23.8155 3.31167L24.5263 5.18109ZM26.3333 2.66699V15.3338H28.3333V2.66699H26.3333ZM26.3333 15.3338C26.3333 16.59 26.3328 17.4821 26.2849 18.1839C26.2376 18.8768 26.1476 19.3109 26.0035 19.6588L27.8512 20.4242C28.1131 19.792 28.226 19.1148 28.2803 18.3201C28.3339 17.5344 28.3333 16.5626 28.3333 15.3338H26.3333ZM23.6583 22.004C23.3104 22.1481 22.8763 22.2381 22.1834 22.2854C21.4816 22.3333 20.5895 22.3338 19.3333 22.3338V24.3338C20.5622 24.3338 21.5339 24.3343 22.3195 24.2807C23.1142 24.2265 23.7913 24.1136 24.4235 23.8518L23.6583 22.004ZM19.3333 22.3338H8.66667V24.3338H19.3333V22.3338ZM8.66667 22.3338C6.6416 22.3338 5 23.9755 5 26.0005H7C7 25.0801 7.74621 24.3338 8.66667 24.3338V22.3338ZM9.33333 30.3338H24.6666V28.3338H9.33333V30.3338ZM25.6666 29.3338L25.6667 22.6194L23.6667 22.6193L23.6666 29.3338L25.6666 29.3338ZM24.1667 21.7533C24.0038 21.8474 23.834 21.9312 23.6582 22.0041L24.4236 23.8518C24.6804 23.7454 24.9285 23.6229 25.1667 23.4854L24.1667 21.7533ZM26.0035 19.6588C25.6364 20.5448 24.9882 21.279 24.1667 21.7533L25.1667 23.4854C26.3674 22.7921 27.3148 21.7192 27.8512 20.4242L26.0035 19.6588ZM23.6667 22.5V22.6194H25.6667V22.5H23.6667ZM23.6666 29.3338V29.5H25.6666V29.3338H23.6666ZM27.3333 28.3338H24.6666V30.3338H27.3333V28.3338Z" fill="#4DA2FE"/>
<path d="M11.6666 3L11.6666 11" stroke="white" stroke-width="2" stroke-linecap="round" stroke-linejoin="round"/>
</svg>
