<svg width="32" height="32" viewBox="0 0 32 32" fill="none" xmlns="http://www.w3.org/2000/svg">
<path d="M16.6666 2.68168C16.4458 2.67128 16.2236 2.66602 16 2.66602C8.637 2.66602 2.66663 8.37744 2.66663 15.4216C2.66663 18.8061 4.0444 21.8813 6.29181 24.1635C6.78663 24.666 7.117 25.3524 6.98367 26.0591C6.76363 27.2143 6.26495 28.2919 5.53477 29.19C7.45589 29.5473 9.45348 29.2256 11.1666 28.3146C11.7722 27.9926 12.075 27.8315 12.2887 27.7988C12.5023 27.7661 12.8084 27.8236 13.4205 27.9387C14.2709 28.0983 15.1342 28.1784 16 28.1772C23.3629 28.1772 29.3333 22.4659 29.3333 15.4216C29.3333 15.168 29.3256 14.916 29.3102 14.666" stroke="white" stroke-width="1.5" stroke-linecap="round" stroke-linejoin="round"/>
<path d="M20 7.33268H29.3333M24.6667 2.66602V11.9993" stroke="white" stroke-width="1.5" stroke-linecap="round" stroke-linejoin="round"/>
<path d="M15.994 16H16.006M21.3213 16H21.3333M10.6666 16H10.6786" stroke="white" stroke-width="2" stroke-linecap="round" stroke-linejoin="round"/>
</svg>
