<svg width="33" height="32" viewBox="0 0 33 32" fill="none" xmlns="http://www.w3.org/2000/svg">
<path d="M9.66675 20V29.3333M23.0001 20V29.3333" stroke="#00838F" stroke-width="2" stroke-linecap="round" stroke-linejoin="round"/>
<path d="M16.3334 14.667C14.3044 14.667 12.1591 15.057 10.4774 15.5787C9.21111 15.9715 8.19249 17.763 8.34936 19.2174C8.40748 19.7562 8.82507 20.0003 9.26413 20.0003H23.4026C23.8416 20.0003 24.2592 19.7562 24.3174 19.2174C24.4743 17.763 23.4556 15.9715 22.1894 15.5787C20.5076 15.057 18.3623 14.667 16.3334 14.667Z" fill="#4DA2FE" stroke="#00838F" stroke-width="2" stroke-linecap="round"/>
<path d="M9.77819 16.0003L9.29063 11.0502C8.95088 7.60083 8.781 5.87615 9.51589 4.63951C10.899 2.3121 13.9873 2.68965 16.3333 2.68965C18.6793 2.68965 21.7677 2.3121 23.1508 4.63951C23.8856 5.87615 23.7157 7.60083 23.376 11.0502L22.8885 16.0003" fill="#4DA2FE"/>
<path d="M9.77819 16.0003L9.29063 11.0502C8.95088 7.60083 8.781 5.87615 9.51589 4.63951C10.899 2.3121 13.9873 2.68965 16.3333 2.68965C18.6793 2.68965 21.7677 2.3121 23.1508 4.63951C23.8856 5.87615 23.7157 7.60083 23.376 11.0502L22.8885 16.0003" stroke="#00838F" stroke-width="2" stroke-linejoin="round"/>
<path d="M9.66675 24H23.0001" stroke="#00838F" stroke-width="2" stroke-linecap="round" stroke-linejoin="round"/>
</svg>
