<svg width="29" height="28" viewBox="0 0 29 28" fill="none" xmlns="http://www.w3.org/2000/svg">
<path d="M2.83337 6.99967C2.83337 4.79978 2.83337 3.69984 3.5168 3.01643C4.20021 2.33301 5.30015 2.33301 7.50004 2.33301C9.69993 2.33301 10.7999 2.33301 11.4833 3.01643C12.1667 3.69984 12.1667 4.79978 12.1667 6.99967V9.33301C12.1667 11.5329 12.1667 12.6328 11.4833 13.3162C10.7999 13.9997 9.69993 13.9997 7.50004 13.9997C5.30015 13.9997 4.20021 13.9997 3.5168 13.3162C2.83337 12.6328 2.83337 11.5329 2.83337 9.33301V6.99967Z" stroke="#525252" stroke-width="1.5"/>
<path d="M2.83337 22.167C2.83337 21.0798 2.83337 20.5362 3.01099 20.1074C3.24781 19.5357 3.70205 19.0814 4.27378 18.8446C4.70258 18.667 5.24618 18.667 6.33337 18.667H8.66671C9.7539 18.667 10.2975 18.667 10.7263 18.8446C11.298 19.0814 11.7523 19.5357 11.9891 20.1074C12.1667 20.5362 12.1667 21.0798 12.1667 22.167C12.1667 23.2542 12.1667 23.7978 11.9891 24.2266C11.7523 24.7983 11.298 25.2526 10.7263 25.4894C10.2975 25.667 9.7539 25.667 8.66671 25.667H6.33337C5.24618 25.667 4.70258 25.667 4.27378 25.4894C3.70205 25.2526 3.24781 24.7983 3.01099 24.2266C2.83337 23.7978 2.83337 23.2542 2.83337 22.167Z" stroke="#525252" stroke-width="1.5"/>
<path d="M16.8334 18.6667C16.8334 16.4668 16.8334 15.3669 17.5168 14.6834C18.2002 14 19.3002 14 21.5 14C23.6999 14 24.7998 14 25.4833 14.6834C26.1667 15.3669 26.1667 16.4668 26.1667 18.6667V21C26.1667 23.1999 26.1667 24.2998 25.4833 24.9832C24.7998 25.6667 23.6999 25.6667 21.5 25.6667C19.3002 25.6667 18.2002 25.6667 17.5168 24.9832C16.8334 24.2998 16.8334 23.1999 16.8334 21V18.6667Z" stroke="#525252" stroke-width="1.5"/>
<path d="M16.8334 5.83301C16.8334 4.74581 16.8334 4.20222 17.0109 3.77341C17.2478 3.20168 17.7021 2.74744 18.2737 2.51062C18.7026 2.33301 19.2462 2.33301 20.3334 2.33301H22.6667C23.7539 2.33301 24.2975 2.33301 24.7263 2.51062C25.298 2.74744 25.7523 3.20168 25.9891 3.77341C26.1667 4.20222 26.1667 4.74581 26.1667 5.83301C26.1667 6.9202 26.1667 7.4638 25.9891 7.89261C25.7523 8.46433 25.298 8.91857 24.7263 9.15539C24.2975 9.33301 23.7539 9.33301 22.6667 9.33301H20.3334C19.2462 9.33301 18.7026 9.33301 18.2737 9.15539C17.7021 8.91857 17.2478 8.46433 17.0109 7.89261C16.8334 7.4638 16.8334 6.9202 16.8334 5.83301Z" stroke="#525252" stroke-width="1.5"/>
</svg>
