<svg width="46" height="18" viewBox="0 0 46 18" fill="none" xmlns="http://www.w3.org/2000/svg">
<rect width="18" height="18" rx="9" fill="#4DA2FE"/>
<path d="M13.9688 6.75563C13.8632 6.63596 13.7333 6.54014 13.5878 6.47452C13.4424 6.40889 13.2846 6.37497 13.125 6.375H10.5V5.625C10.5 5.12772 10.3025 4.65081 9.95083 4.29917C9.59919 3.94754 9.12228 3.75 8.625 3.75C8.55533 3.74995 8.48703 3.76931 8.42775 3.8059C8.36847 3.8425 8.32055 3.89489 8.28937 3.95719L6.51844 7.5H4.5C4.30109 7.5 4.11032 7.57902 3.96967 7.71967C3.82902 7.86032 3.75 8.05109 3.75 8.25V12.375C3.75 12.5739 3.82902 12.7647 3.96967 12.9053C4.11032 13.046 4.30109 13.125 4.5 13.125H12.5625C12.8366 13.1251 13.1013 13.0251 13.3069 12.8439C13.5125 12.6626 13.6448 12.4126 13.6791 12.1406L14.2416 7.64062C14.2615 7.4822 14.2475 7.32134 14.2004 7.16875C14.1534 7.01616 14.0744 6.87533 13.9688 6.75563ZM4.5 8.25H6.375V12.375H4.5V8.25Z" fill="white"/>
<rect x="14" width="18" height="18" rx="9" fill="#FFD13E"/>
<g clip-path="url(#clip0_859_9905)">
<path d="M25.8115 3.84082C23.7574 3.84082 23.0027 5.93988 23.0027 5.93988C23.0027 5.93988 22.2584 3.84082 20.1902 3.84082C18.6359 3.84082 16.864 5.0727 17.5184 7.87301C18.1727 10.6733 23.0084 14.1618 23.0084 14.1618C23.0084 14.1618 27.8262 10.6733 28.4815 7.87301C29.1359 5.0727 27.4915 3.84082 25.8115 3.84082Z" fill="#F44336"/>
<path d="M19.8734 4.04988C21.4859 4.04988 22.2865 5.78332 22.5452 6.48551C22.5818 6.58582 22.7215 6.58863 22.7637 6.49113L22.9999 5.93895C22.6671 4.87582 21.7521 3.84082 20.1902 3.84082C19.5434 3.84082 18.8599 4.05457 18.3284 4.50551C18.7981 4.19707 19.3484 4.04988 19.8734 4.04988Z" fill="#CC3333"/>
<path d="M25.8114 3.84082C25.3155 3.84082 24.8636 3.94863 24.5111 4.16613C24.7586 4.07051 25.0652 4.04988 25.3689 4.04988C26.8886 4.04988 28.2489 5.20207 27.6349 7.86551C27.108 10.1521 24.0292 12.9261 23.0889 13.9846C23.0289 14.0521 23.0083 14.1608 23.0083 14.1608C23.0083 14.1608 27.8261 10.6724 28.4814 7.87207C29.1358 5.0727 27.4942 3.84082 25.8114 3.84082Z" fill="#CC3333"/>
<path d="M18.5974 5.32695C18.9489 4.8882 19.5771 4.52538 20.1096 4.94351C20.3974 5.16945 20.2717 5.63257 20.0139 5.82757C19.6389 6.11257 19.3127 6.28413 19.0839 6.73038C18.9471 6.99851 18.8646 7.29194 18.8224 7.59101C18.8055 7.70913 18.6508 7.73819 18.5927 7.63413C18.1971 6.93288 18.0846 5.96726 18.5974 5.32695Z" fill="#FF8A80"/>
<path d="M24.2336 6.24946C24.0686 6.24946 23.9524 6.09008 24.0124 5.93633C24.1239 5.65321 24.2683 5.37946 24.4417 5.13571C24.6986 4.77571 25.187 4.56571 25.4964 4.78414C25.8133 5.00727 25.772 5.45352 25.5499 5.66914C25.0727 6.13133 24.4708 6.24946 24.2336 6.24946Z" fill="#FF8A80"/>
</g>
<rect x="28" width="18" height="18" rx="9" fill="#52489C"/>
<g clip-path="url(#clip1_859_9905)">
<path d="M36.9626 14.1375C34.347 14.1375 31.5251 12.4969 31.5251 8.89688C31.5251 5.29688 34.347 3.65625 36.9626 3.65625C38.4158 3.65625 39.7564 4.13437 40.7501 5.00625C41.8283 5.9625 42.4001 7.3125 42.4001 8.89688C42.4001 10.4813 41.8283 11.8219 40.7501 12.7781C39.7564 13.65 38.4064 14.1375 36.9626 14.1375Z" fill="url(#paint0_radial_859_9905)"/>
<path d="M41.4524 5.78125C41.9521 6.5875 42.2127 7.5475 42.2127 8.61531C42.2127 10.1997 41.6408 11.5403 40.5627 12.4966C39.5689 13.3684 38.2189 13.8559 36.7752 13.8559C35.0821 13.8559 33.3064 13.1669 32.2583 11.7053C33.2671 13.3609 35.1646 14.1372 36.9627 14.1372C38.4064 14.1372 39.7564 13.6497 40.7502 12.7778C41.8283 11.8216 42.4002 10.4809 42.4002 8.89656C42.4002 7.70219 42.0749 6.64094 41.4524 5.78125Z" fill="#EB8F00"/>
<path d="M34.6976 5.9261C34.6563 5.82672 34.5438 5.7761 34.4426 5.81266C34.2907 5.86235 34.1444 5.92704 34.0047 6.00485C33.6335 6.20922 33.3157 6.49891 33.0776 6.8486C33.0119 6.93766 33.0288 7.06235 33.116 7.12985C33.1619 7.16829 33.2219 7.18704 33.2819 7.17954C33.3269 7.17297 33.3682 7.15141 33.4001 7.1186C33.7601 6.7661 34.1632 6.46047 34.5991 6.20922L34.6094 6.2036C34.7088 6.15016 34.7482 6.02735 34.6976 5.9261Z" fill="#422B0D"/>
<path d="M39.5023 5.83235C39.5435 5.73297 39.656 5.68235 39.7573 5.71891C39.9082 5.76766 40.0545 5.83047 40.1941 5.90641C40.5654 6.11079 40.8832 6.39954 41.1223 6.75016C41.187 6.83922 41.1701 6.96297 41.0838 7.03141C41.0379 7.06985 40.9779 7.08766 40.9179 7.0811C40.8729 7.07454 40.8316 7.05297 40.7998 7.02016C40.4398 6.66766 40.0366 6.36204 39.6007 6.11079L39.5904 6.10516C39.4938 6.05172 39.4545 5.93266 39.5023 5.83235Z" fill="#422B0D"/>
<path d="M40.5693 9.7147C40.438 9.47751 40.153 9.37345 39.8999 9.46907C38.938 9.74939 37.9405 9.88907 36.9383 9.88439C35.9361 9.88907 34.9386 9.74939 33.9768 9.46907C33.7246 9.37345 33.4396 9.47657 33.3083 9.71282C33.1808 9.94814 33.2727 10.2209 33.3805 10.4563C33.9824 11.7781 35.3089 12.5694 36.9308 12.5741H36.9458C38.5677 12.5741 39.8943 11.7781 40.4971 10.4563C40.6039 10.2191 40.6968 9.95001 40.5693 9.7147Z" fill="#422B0D"/>
<path d="M38.4392 12.201C38.4045 12.1691 38.3689 12.14 38.3333 12.1072C37.9508 11.7707 37.4558 11.5897 36.9458 11.6C36.4208 11.5916 35.9098 11.766 35.5002 12.0941C35.4645 12.1232 35.427 12.1513 35.3923 12.1878C35.3577 12.2244 35.3389 12.2507 35.3164 12.2816C35.832 12.4832 36.3814 12.5863 36.9355 12.5835H36.9505C37.4811 12.5835 38.007 12.4888 38.5039 12.3022C38.4852 12.2666 38.4636 12.2328 38.4392 12.201Z" fill="#ED7770"/>
<path d="M39.8998 9.46849C38.9379 9.7488 37.9404 9.88849 36.9383 9.8838C35.9361 9.88849 34.9386 9.7488 33.9767 9.46849C33.7245 9.37287 33.4395 9.47599 33.3083 9.71224C33.2895 9.74787 33.2745 9.78537 33.2651 9.8238C33.2961 9.83974 33.3317 9.85568 33.3739 9.87255C34.5026 10.4379 35.7504 10.7247 37.0123 10.7097C38.2226 10.7238 39.4189 10.4604 40.512 9.94099C40.5561 9.92224 40.5926 9.90443 40.6254 9.88756C40.6179 9.82662 40.5983 9.76662 40.5692 9.71224C40.4379 9.47599 40.1529 9.37193 39.8998 9.46849Z" fill="white"/>
<path d="M40.573 9.71564C40.4399 9.47845 40.1539 9.37345 39.8989 9.46907C38.9371 9.74939 37.9396 9.88907 36.9383 9.88439C35.9361 9.88907 34.9386 9.74939 33.9768 9.46907C33.7246 9.37345 33.4396 9.47657 33.3083 9.71282C33.1808 9.94814 33.2727 10.2209 33.3805 10.4563C33.4283 10.5622 33.4818 10.6663 33.5408 10.7666C33.5408 10.7666 33.3439 10.0372 33.5146 9.82532C33.5727 9.73532 33.6702 9.67907 33.7771 9.67345C33.8211 9.67345 33.8643 9.68095 33.9064 9.69407C34.8852 9.98189 35.9005 10.1272 36.9214 10.1253H36.9543C37.9752 10.1272 38.9905 9.98189 39.9693 9.69407C40.0114 9.68095 40.0546 9.67345 40.0986 9.67345C40.2055 9.67907 40.3039 9.73532 40.3621 9.82532C40.5355 10.0372 40.3358 10.7694 40.3358 10.7694C40.3939 10.6691 40.4521 10.5659 40.5008 10.4591C40.6077 10.2238 40.7005 9.95189 40.573 9.71564Z" fill="#EB8F00"/>
<path d="M40.4397 8.35254C40.4397 8.35254 42.0334 8.3966 42.67 9.57129C42.9363 10.0644 42.9513 10.8838 42.4 11.1829C41.7334 11.5494 41.1081 11.0291 41.0284 10.4741C40.8138 8.96848 40.4397 8.35254 40.4397 8.35254Z" fill="#29B6F6"/>
<path d="M42.5558 10.6188C42.493 10.7332 42.3552 10.7829 42.2342 10.7351C42.1264 10.6779 42.0974 10.5401 42.0805 10.4191L42.0289 10.0441C42.0074 9.89506 41.8555 9.41224 42.0149 9.33349C42.1414 9.27162 42.3842 9.44224 42.4555 9.54068C42.612 9.76381 42.6861 10.3994 42.5558 10.6188Z" fill="#81D4FA"/>
<path d="M42.0149 9.33838C42.1415 9.2765 42.3843 9.44713 42.4555 9.54557C42.6121 9.764 42.6861 10.3996 42.5558 10.619C42.493 10.7334 42.3552 10.7831 42.2343 10.7353C42.1265 10.6781 42.0974 10.5403 42.0805 10.4193L42.029 10.0443" fill="#81D4FA"/>
<path d="M33.5604 8.35254C33.5604 8.35254 31.9666 8.3966 31.3301 9.57129C31.0638 10.0597 31.0535 10.8754 31.6001 11.1782C32.2666 11.5447 32.892 11.0244 32.9716 10.4694C33.1863 8.96848 33.5604 8.35254 33.5604 8.35254Z" fill="#29B6F6"/>
<path d="M31.4444 10.6188C31.5072 10.7332 31.645 10.7829 31.766 10.7351C31.8738 10.6779 31.9028 10.5401 31.9197 10.4191L31.9713 10.0441C31.9928 9.89506 32.1447 9.41224 31.9853 9.33349C31.8588 9.27162 31.616 9.44224 31.5447 9.54068C31.3882 9.76381 31.3141 10.3994 31.4444 10.6188Z" fill="#81D4FA"/>
<path d="M35.514 8.23793L35.5 8.2173L35.4803 8.19199C35.4728 8.18168 35.4653 8.17324 35.4559 8.1648L35.3987 8.10668C35.3743 8.0823 35.3472 8.05793 35.3172 8.03262C35.2553 7.97918 35.1859 7.93605 35.1109 7.9023C35.0387 7.87043 34.96 7.85355 34.8812 7.85355C34.914 7.85355 34.8897 7.85355 34.8972 7.85355H34.8437C34.8343 7.85262 34.8259 7.85262 34.8165 7.85355C34.7997 7.85543 34.7828 7.85824 34.7659 7.86199C34.7275 7.87137 34.689 7.88355 34.6525 7.89855C34.5775 7.93137 34.5081 7.97543 34.4462 8.02887C34.3956 8.07105 34.3478 8.11699 34.3037 8.16668L34.2503 8.22668L34.2222 8.25855C34.1087 8.38793 33.9128 8.40105 33.7834 8.28855C33.6868 8.20418 33.6522 8.06824 33.6953 7.9473L33.7056 7.9173C33.714 7.89762 33.7215 7.86762 33.7393 7.83199C33.7825 7.73074 33.8387 7.63418 33.9062 7.54699C34.0703 7.33043 34.3009 7.17293 34.5625 7.09793C34.6159 7.08387 34.6703 7.07355 34.7256 7.06605C34.7537 7.06605 34.795 7.05762 34.8072 7.05762H34.8784C34.9843 7.05949 35.0903 7.07449 35.1934 7.10074C35.2918 7.12793 35.3856 7.1673 35.4747 7.21793C35.62 7.30324 35.7475 7.41574 35.8497 7.5498C35.919 7.64074 35.9781 7.73918 36.024 7.84418C36.0315 7.85918 36.0381 7.87418 36.0418 7.89012C36.0465 7.9023 36.0493 7.91262 36.0522 7.92105L36.0606 7.94637C36.114 8.1123 36.0231 8.29043 35.8572 8.34387C35.7325 8.38418 35.5947 8.34293 35.5131 8.24074L35.514 8.23793Z" fill="#422B0D"/>
<path d="M39.7637 8.23793L39.7468 8.2173L39.7272 8.19199C39.7197 8.18168 39.7122 8.17324 39.7028 8.1648L39.6447 8.10668C39.6193 8.08043 39.5922 8.05605 39.564 8.03262C39.5022 7.97918 39.4328 7.93605 39.3578 7.9023C39.2856 7.87043 39.2068 7.85355 39.1281 7.85355C39.1609 7.85355 39.1365 7.85355 39.144 7.85355H39.0897C39.0803 7.85262 39.0718 7.85262 39.0625 7.85355C39.0456 7.85543 39.0287 7.85824 39.0118 7.86199C38.9734 7.87137 38.935 7.88355 38.8984 7.89855C38.8225 7.93324 38.7512 7.97824 38.6875 8.03262C38.6368 8.07574 38.59 8.12168 38.5459 8.17043L38.4925 8.23043L38.4643 8.2623C38.3509 8.39168 38.155 8.4048 38.0256 8.2923C37.929 8.20793 37.8943 8.07199 37.9375 7.95105L37.9478 7.92105C37.9562 7.90137 37.9637 7.87137 37.9806 7.83574C38.0256 7.73262 38.0828 7.63605 38.1522 7.54699C38.3162 7.33043 38.5468 7.17293 38.8084 7.09793C38.8618 7.08387 38.9162 7.07355 38.9715 7.06605C38.9997 7.06605 39.0409 7.05762 39.0531 7.05762H39.1243C39.2303 7.05949 39.3362 7.07449 39.4393 7.10074C39.5368 7.12887 39.6306 7.16824 39.7187 7.21887C39.864 7.30324 39.9915 7.41668 40.0937 7.55074C40.1331 7.60137 40.1678 7.6548 40.1997 7.71012C40.225 7.75418 40.2475 7.79918 40.2681 7.84512C40.2756 7.86012 40.2812 7.87512 40.2859 7.89105C40.2859 7.90324 40.2934 7.91355 40.2962 7.92199L40.3047 7.9473C40.3581 8.11324 40.2672 8.29137 40.1012 8.3448C39.9765 8.38512 39.8387 8.34387 39.7572 8.24168L39.7637 8.23793Z" fill="#422B0D"/>
</g>
<defs>
<radialGradient id="paint0_radial_859_9905" cx="0" cy="0" r="1" gradientUnits="userSpaceOnUse" gradientTransform="translate(36.9626 8.89688) scale(5.33997)">
<stop offset="0.5" stop-color="#FDE030"/>
<stop offset="0.92" stop-color="#F7C02B"/>
<stop offset="1" stop-color="#F4A223"/>
</radialGradient>
<clipPath id="clip0_859_9905">
<rect width="12" height="12" fill="white" transform="translate(17 3)"/>
</clipPath>
<clipPath id="clip1_859_9905">
<rect width="12" height="12" fill="white" transform="translate(31 3)"/>
</clipPath>
</defs>
</svg>
