<svg width="20" height="20" viewBox="0 0 20 20" fill="none" xmlns="http://www.w3.org/2000/svg">
<path d="M0 10C0 8.70895 0.867433 7.62049 2.05128 7.28566L2.05128 0.769231C2.05128 0.344396 2.39568 0 2.82051 0C3.24535 0 3.58974 0.344396 3.58974 0.769231L3.58974 7.28566C4.77359 7.62049 5.64103 8.70895 5.64103 10C5.64103 11.2911 4.77359 12.3795 3.58974 12.7143L3.58974 19.2308C3.58974 19.6556 3.24535 20 2.82051 20C2.39568 20 2.05128 19.6556 2.05128 19.2308L2.05128 12.7143C0.867433 12.3795 0 11.2911 0 10Z" fill="#666666"/>
<path d="M10.7692 2.15745L10.7692 0.769231C10.7692 0.344396 10.4248 0 10 0C9.57517 0 9.23077 0.344396 9.23077 0.769231V2.15745C8.04692 2.49229 7.17949 3.58074 7.17949 4.8718C7.17949 6.42952 8.44227 7.69231 10 7.69231C11.5577 7.69231 12.8205 6.42952 12.8205 4.87179C12.8205 3.58074 11.9531 2.49229 10.7692 2.15745Z" fill="#666666"/>
<path d="M10 20C9.57517 20 9.23077 19.6556 9.23077 19.2308L9.23077 10C9.23077 9.57517 9.57516 9.23077 10 9.23077C10.4248 9.23077 10.7692 9.57517 10.7692 10L10.7692 19.2308C10.7692 19.6556 10.4248 20 10 20Z" fill="#666666"/>
<path d="M17.1795 10.7692C16.7547 10.7692 16.4103 10.4248 16.4103 10V0.769231C16.4103 0.344397 16.7547 0 17.1795 0C17.6043 0 17.9487 0.344397 17.9487 0.769231V10C17.9487 10.4248 17.6043 10.7692 17.1795 10.7692Z" fill="#666666"/>
<path d="M17.1795 20C16.7547 20 16.4103 19.6556 16.4103 19.2308V17.8425C15.2264 17.5077 14.359 16.4193 14.359 15.1282C14.359 13.5705 15.6218 12.3077 17.1795 12.3077C18.7372 12.3077 20 13.5705 20 15.1282C20 16.4193 19.1326 17.5077 17.9487 17.8425V19.2308C17.9487 19.6556 17.6043 20 17.1795 20Z" fill="#666666"/>
</svg>
