<svg width="32" height="32" viewBox="0 0 32 32" fill="none" xmlns="http://www.w3.org/2000/svg">
<path d="M25.3337 23.9993C23.3337 16.666 16.0003 14.666 16.0003 14.666C16.0003 14.666 10.667 19.3327 10.667 27.9993" stroke="#4DA2FE" stroke-width="2" stroke-linecap="round" stroke-linejoin="round"/>
<path d="M2.66699 13.3665C4.44477 12.0196 9.60032 10.4033 16.0003 14.7136C17.5559 12.4671 22.4003 8.51348 29.3337 10.6704" stroke="#4DA2FE" stroke-width="2" stroke-linecap="round" stroke-linejoin="round"/>
<path d="M20 6.66732C18.6667 7.55621 16 10.4007 16 14.6673C15.5556 12.4451 13.3333 7.46732 8 5.33398" stroke="#4DA2FE" stroke-width="2" stroke-linecap="round" stroke-linejoin="round"/>
<path d="M8 18.666C9.31551 17.3327 12.7358 14.666 15.8931 14.666C17.2085 16.2216 18.4092 18.666 17.8663 23.9993" stroke="#4DA2FE" stroke-width="2" stroke-linecap="round" stroke-linejoin="round"/>
<path d="M17.333 27.3223V27.3356" stroke="#4DA2FE" stroke-width="2" stroke-linecap="round" stroke-linejoin="round"/>
<path d="M22.667 4V4.01333" stroke="#4DA2FE" stroke-width="2" stroke-linecap="round" stroke-linejoin="round"/>
<path d="M26.667 16V16.0133" stroke="#4DA2FE" stroke-width="2" stroke-linecap="round" stroke-linejoin="round"/>
<path d="M14.667 5.33398V5.34732" stroke="#4DA2FE" stroke-width="2" stroke-linecap="round" stroke-linejoin="round"/>
<path d="M24 14.666V14.6793" stroke="#4DA2FE" stroke-width="2" stroke-linecap="round" stroke-linejoin="round"/>
<path d="M4 4V4.01333" stroke="#4DA2FE" stroke-width="2" stroke-linecap="round" stroke-linejoin="round"/>
<path d="M5.33301 21.334V21.3473" stroke="#4DA2FE" stroke-width="2" stroke-linecap="round" stroke-linejoin="round"/>
</svg>
