<svg width="32" height="32" viewBox="0 0 32 32" fill="none" xmlns="http://www.w3.org/2000/svg">
<path d="M6.66669 5.99967L9.28382 5.33301M25.3334 5.99967L22.6667 5.33301" stroke="#4DA2FE" stroke-width="2" stroke-linecap="round" stroke-linejoin="round"/>
<path fill-rule="evenodd" clip-rule="evenodd" d="M4.59129 11.0335C3.84985 13.0132 2.97488 16.4215 2.67769 21.0789C2.49848 23.8876 4.53622 25.4117 6.74284 26.5233C8.16269 27.2385 9.25455 25.1276 9.97944 23.4937C10.3755 22.6011 11.2444 22.0475 12.2293 22.0475H19.7708C20.7556 22.0475 21.6247 22.6011 22.0207 23.4937C22.7455 25.1276 23.8374 27.2385 25.2572 26.5233C27.4864 25.4004 29.5002 23.8652 29.3224 21.0789C29.0252 16.4215 28.1503 13.0132 27.4088 11.0335C27.0346 10.034 26.2292 9.28971 25.1982 9.04028C19.4648 7.65324 12.5353 7.65324 6.80196 9.04028C5.77093 9.28971 4.96561 10.034 4.59129 11.0335ZM8.94281 12.3902C8.42211 11.8695 7.57789 11.8695 7.05719 12.3902C6.53649 12.9109 6.53649 13.7551 7.05719 14.2758L8.11438 15.333L7.05719 16.3902C6.53649 16.9109 6.53649 17.7551 7.05719 18.2758C7.57789 18.7965 8.42211 18.7965 8.94281 18.2758L10 17.2186L11.0572 18.2758C11.5779 18.7965 12.4221 18.7965 12.9428 18.2758C13.4635 17.7551 13.4635 16.9109 12.9428 16.3902L11.8856 15.333L12.9428 14.2758C13.4635 13.7551 13.4635 12.9109 12.9428 12.3902C12.4221 11.8695 11.5779 11.8695 11.0572 12.3902L10 13.4474L8.94281 12.3902ZM21.3175 14.6663H21.3295C22.0658 14.6663 22.6628 14.0694 22.6628 13.333C22.6628 12.5966 22.0658 11.9997 21.3295 11.9997H21.3175C20.5811 11.9997 19.9841 12.5966 19.9841 13.333C19.9841 14.0694 20.5811 14.6663 21.3175 14.6663ZM23.9841 15.9997C23.2478 15.9997 22.6508 16.5966 22.6508 17.333C22.6508 18.0694 23.2478 18.6663 23.9841 18.6663H23.9961C24.7325 18.6663 25.3295 18.0694 25.3295 17.333C25.3295 16.5966 24.7325 15.9997 23.9961 15.9997H23.9841Z" fill="#4DA2FE"/>
</svg>
