<svg width="21" height="20" viewBox="0 0 21 20" fill="none" xmlns="http://www.w3.org/2000/svg">
<path d="M20.5 10.2222C20.5 9.39995 20.432 8.79995 20.2846 8.17773H10.7041V11.8888H16.3277C16.2143 12.8111 15.6021 14.1999 14.2415 15.1332L14.2224 15.2575L17.2516 17.5572L17.4615 17.5777C19.3889 15.8333 20.5 13.2666 20.5 10.2222Z" fill="#4285F4"/>
<path d="M10.7036 19.9998C13.4586 19.9998 15.7715 19.1109 17.4609 17.5776L14.2409 15.1331C13.3793 15.722 12.2228 16.1331 10.7036 16.1331C8.00516 16.1331 5.71493 14.3887 4.89853 11.9775L4.77886 11.9875L1.62908 14.3764L1.58789 14.4886C3.26588 17.7553 6.71259 19.9998 10.7036 19.9998Z" fill="#34A853"/>
<path d="M4.89906 11.9782C4.68364 11.356 4.55897 10.6893 4.55897 10.0005C4.55897 9.31153 4.68364 8.64489 4.88772 8.02268L4.88202 7.89016L1.69276 5.46289L1.58841 5.51153C0.896831 6.8671 0.5 8.38935 0.5 10.0005C0.5 11.6116 0.896831 13.1337 1.58841 14.4893L4.89906 11.9782Z" fill="#FBBC05"/>
<path d="M10.7036 3.86664C12.6197 3.86664 13.9122 4.67775 14.6492 5.35557L17.529 2.6C15.7603 0.988893 13.4587 0 10.7036 0C6.71262 0 3.26589 2.24443 1.58789 5.51107L4.88721 8.02221C5.71495 5.61111 8.0052 3.86664 10.7036 3.86664Z" fill="#EB4335"/>
</svg>
