<svg width="28" height="28" viewBox="0 0 28 28" fill="none" xmlns="http://www.w3.org/2000/svg">
<path d="M18.0833 12.8333C18.0833 15.0885 16.2551 16.9167 14 16.9167C11.7448 16.9167 9.91663 15.0885 9.91663 12.8333C9.91663 10.5782 11.7448 8.75 14 8.75C16.2551 8.75 18.0833 10.5782 18.0833 12.8333Z" stroke="#141B34" stroke-width="1.5"/>
<path d="M14 2.33203C19.6824 2.33203 24.5 7.03718 24.5 12.7455C24.5 18.5446 19.6038 22.6142 15.0815 25.3815C14.7519 25.5676 14.3792 25.6654 14 25.6654C13.6208 25.6654 13.2481 25.5676 12.9185 25.3815C8.40455 22.5872 3.5 18.5647 3.5 12.7455C3.5 7.03718 8.31768 2.33203 14 2.33203Z" stroke="#141B34" stroke-width="1.5"/>
</svg>
