<svg width="22" height="19" viewBox="0 0 22 19" fill="none" xmlns="http://www.w3.org/2000/svg">
<path d="M21.5 6.65039C21.5 13.2129 11.7697 18.5248 11.3553 18.7441C11.2461 18.8029 11.124 18.8336 11 18.8336C10.876 18.8336 10.7539 18.8029 10.6447 18.7441C10.2303 18.5248 0.5 13.2129 0.5 6.65039C0.501737 5.10935 1.11468 3.63193 2.20436 2.54225C3.29404 1.45257 4.77146 0.839628 6.3125 0.837891C8.24844 0.837891 9.94344 1.67039 11 3.07758C12.0566 1.67039 13.7516 0.837891 15.6875 0.837891C17.2285 0.839628 18.706 1.45257 19.7956 2.54225C20.8853 3.63193 21.4983 5.10935 21.5 6.65039Z" fill="#FE3333"/>
</svg>
