<svg width="28" height="28" viewBox="0 0 28 28" fill="none" xmlns="http://www.w3.org/2000/svg">
<path d="M9.33337 18.6667L19.5068 17.8189C22.6901 17.5537 23.4047 16.8583 23.7575 13.6837L24.5 7" stroke="#525252" stroke-width="1.5" stroke-linecap="round"/>
<path d="M7 7H25.6667" stroke="#525252" stroke-width="1.5" stroke-linecap="round"/>
<path d="M6.99996 25.6667C8.28862 25.6667 9.33329 24.622 9.33329 23.3333C9.33329 22.0447 8.28862 21 6.99996 21C5.71129 21 4.66663 22.0447 4.66663 23.3333C4.66663 24.622 5.71129 25.6667 6.99996 25.6667Z" stroke="#525252" stroke-width="1.5"/>
<path d="M19.8333 25.6667C21.122 25.6667 22.1667 24.622 22.1667 23.3333C22.1667 22.0447 21.122 21 19.8333 21C18.5447 21 17.5 22.0447 17.5 23.3333C17.5 24.622 18.5447 25.6667 19.8333 25.6667Z" stroke="#525252" stroke-width="1.5"/>
<path d="M9.33337 23.333H17.5" stroke="#525252" stroke-width="1.5" stroke-linecap="round"/>
<path d="M2.33337 2.33301H3.46037C4.5625 2.33301 5.5232 3.0617 5.79051 4.10043L9.26165 17.5889C9.43706 18.2706 9.28694 18.9927 8.85299 19.5549L7.73753 20.9997" stroke="#525252" stroke-width="1.5" stroke-linecap="round"/>
</svg>
