<svg width="41" height="41" viewBox="0 0 41 41" fill="none" xmlns="http://www.w3.org/2000/svg">
<path fill-rule="evenodd" clip-rule="evenodd" d="M28.7403 10.916H23.8337C23.1434 10.916 22.5837 11.4757 22.5837 12.166C22.5837 12.8564 23.1434 13.416 23.8337 13.416H28.8337V17.5827H23.8337C23.1434 17.5827 22.5837 18.1423 22.5837 18.8327C22.5837 19.523 23.1434 20.0827 23.8337 20.0827H28.7407C28.1382 24.0927 24.6783 27.1673 20.5003 27.1673C15.898 27.1673 12.167 23.4363 12.167 18.834V12.1673C12.167 7.56495 15.898 3.83398 20.5003 3.83398C24.6774 3.83398 28.1367 6.90727 28.7403 10.916Z" fill="#4DA2FE"/>
<path d="M33.8337 18.834C33.8337 26.1978 27.8642 32.1673 20.5003 32.1673M20.5003 32.1673C13.1365 32.1673 7.16699 26.1978 7.16699 18.834M20.5003 32.1673V37.1673M20.5003 37.1673H25.5003M20.5003 37.1673H15.5003" stroke="#4DA2FE" stroke-width="2.5" stroke-linecap="round"/>
</svg>
