<svg width="33" height="32" viewBox="0 0 33 32" fill="none" xmlns="http://www.w3.org/2000/svg">
<path fill-rule="evenodd" clip-rule="evenodd" d="M23.092 8.33398H19.1665C18.6142 8.33398 18.1665 8.7817 18.1665 9.33398C18.1665 9.88627 18.6142 10.334 19.1665 10.334H23.1663V13.6673H19.1665C18.6142 13.6673 18.1665 14.115 18.1665 14.6673C18.1665 15.2196 18.6142 15.6673 19.1665 15.6673H23.0916C22.6086 18.8742 19.8412 21.3327 16.4997 21.3327C12.8178 21.3327 9.83301 18.3479 9.83301 14.666V9.33268C9.83301 5.65079 12.8178 2.66602 16.4997 2.66602C19.8421 2.66602 22.6101 5.12584 23.092 8.33398Z" fill="#4DA2FE"/>
<path d="M27.1663 14.666C27.1663 20.5571 22.3907 25.3327 16.4997 25.3327M16.4997 25.3327C10.6086 25.3327 5.83301 20.5571 5.83301 14.666M16.4997 25.3327V29.3327M16.4997 29.3327H20.4997M16.4997 29.3327H12.4997" stroke="#00838F" stroke-width="2" stroke-linecap="round"/>
</svg>
