<svg width="24" height="4" viewBox="0 0 24 4" fill="none" xmlns="http://www.w3.org/2000/svg">
<path d="M13.8 1.8C13.8 2.15601 13.6944 2.50402 13.4966 2.80003C13.2989 3.09603 13.0177 3.32674 12.6888 3.46298C12.3599 3.59922 11.998 3.63487 11.6488 3.56541C11.2997 3.49596 10.9789 3.32453 10.7272 3.07279C10.4755 2.82106 10.304 2.50033 10.2346 2.15116C10.1651 1.802 10.2008 1.44008 10.337 1.11117C10.4733 0.782263 10.704 0.501141 11 0.303354C11.296 0.105568 11.644 0 12 0C12.4774 0 12.9352 0.189642 13.2728 0.527208C13.6104 0.864773 13.8 1.32261 13.8 1.8ZM22.2 0C21.844 0 21.496 0.105568 21.2 0.303354C20.904 0.501141 20.6733 0.782263 20.537 1.11117C20.4008 1.44008 20.3651 1.802 20.4346 2.15116C20.504 2.50033 20.6755 2.82106 20.9272 3.07279C21.1789 3.32453 21.4997 3.49596 21.8488 3.56541C22.198 3.63487 22.5599 3.59922 22.8888 3.46298C23.2177 3.32674 23.4989 3.09603 23.6966 2.80003C23.8944 2.50402 24 2.15601 24 1.8C24 1.32261 23.8104 0.864773 23.4728 0.527208C23.1352 0.189642 22.6774 0 22.2 0ZM1.8 0C1.44399 0 1.09598 0.105568 0.799975 0.303354C0.503966 0.501141 0.273255 0.782263 0.137018 1.11117C0.000779915 1.44008 -0.0348661 1.802 0.0345873 2.15116C0.104041 2.50033 0.275474 2.82106 0.527209 3.07279C0.778943 3.32453 1.09967 3.49596 1.44884 3.56541C1.798 3.63487 2.15992 3.59922 2.48883 3.46298C2.81774 3.32674 3.09886 3.09603 3.29665 2.80003C3.49443 2.50402 3.6 2.15601 3.6 1.8C3.6 1.32261 3.41036 0.864773 3.07279 0.527208C2.73523 0.189642 2.27739 0 1.8 0Z" fill="#4DA2FE"/>
</svg>
