<svg width="22" height="24" viewBox="0 0 22 24" fill="none" xmlns="http://www.w3.org/2000/svg">
<path d="M21.2593 17.2434C20.6523 16.1978 19.75 13.2392 19.75 9.375C19.75 7.05436 18.8281 4.82876 17.1871 3.18782C15.5462 1.54687 13.3206 0.625 11 0.625C8.67931 0.625 6.45371 1.54687 4.81277 3.18782C3.17183 4.82876 2.24995 7.05436 2.24995 9.375C2.24995 13.2403 1.34652 16.1978 0.739484 17.2434C0.584468 17.5093 0.502287 17.8113 0.501231 18.119C0.500175 18.4267 0.580279 18.7293 0.733467 18.9962C0.886655 19.263 1.10751 19.4848 1.37376 19.6391C1.64 19.7934 1.94223 19.8748 2.24995 19.875H6.71355C6.91542 20.8628 7.45229 21.7506 8.23335 22.3882C9.01441 23.0258 9.99171 23.374 11 23.374C12.0082 23.374 12.9855 23.0258 13.7666 22.3882C14.5476 21.7506 15.0845 20.8628 15.2864 19.875H19.75C20.0576 19.8746 20.3597 19.7931 20.6258 19.6387C20.8919 19.4843 21.1126 19.2625 21.2656 18.9957C21.4187 18.7288 21.4987 18.4263 21.4976 18.1187C21.4965 17.8111 21.4143 17.5092 21.2593 17.2434ZM11 21.625C10.4573 21.6248 9.92795 21.4565 9.48489 21.1431C9.04183 20.8297 8.70679 20.3867 8.52589 19.875H13.474C13.2931 20.3867 12.9581 20.8297 12.515 21.1431C12.072 21.4565 11.5427 21.6248 11 21.625ZM2.24995 18.125C3.09214 16.6769 3.99995 13.3212 3.99995 9.375C3.99995 7.51848 4.73745 5.73801 6.05021 4.42525C7.36296 3.1125 9.14344 2.375 11 2.375C12.8565 2.375 14.6369 3.1125 15.9497 4.42525C17.2625 5.73801 18 7.51848 18 9.375C18 13.318 18.9056 16.6736 19.75 18.125H2.24995Z" fill="#0A0A0A"/>
</svg>
