<svg width="33" height="32" viewBox="0 0 33 32" fill="none" xmlns="http://www.w3.org/2000/svg">
<path d="M21.6667 29.3337C20.2453 27.6741 18.3783 26.667 16.3333 26.667C14.2884 26.667 12.4214 27.6741 11 29.3337" stroke="#4DA2FE" stroke-width="2" stroke-linecap="round"/>
<path d="M16.3334 17.333C14.6426 17.333 12.8549 17.6254 11.4534 18.0167C10.3982 18.3114 9.54935 19.655 9.68007 20.7458C9.72851 21.1499 10.0765 21.333 10.4424 21.333H22.2245C22.5904 21.333 22.9384 21.1499 22.9868 20.7458C23.1176 19.655 22.2686 18.3114 21.2134 18.0167C19.812 17.6254 18.0242 17.333 16.3334 17.333Z" fill="#4DA2FE" stroke="#4DA2FE" stroke-width="2" stroke-linecap="round"/>
<path d="M28.3333 13.333C26.8605 13.333 25.6667 14.5269 25.6667 15.9997V17.333C25.6667 18.8058 24.4728 19.9997 23 19.9997" stroke="#4DA2FE" stroke-width="2" stroke-linecap="round" stroke-linejoin="round"/>
<path d="M4.33337 13.333C5.80613 13.333 7.00004 14.5269 7.00004 15.9997V17.333C7.00004 18.8058 8.19395 19.9997 9.66671 19.9997" stroke="#4DA2FE" stroke-width="2" stroke-linecap="round" stroke-linejoin="round"/>
<path d="M16.3334 21.333V29.333" stroke="#4DA2FE" stroke-width="2" stroke-linecap="round" stroke-linejoin="round"/>
<path d="M17.4264 13.3337H15.2405C13.3709 13.3337 12.4361 13.3337 11.7599 12.7689C11.0837 12.2041 10.857 11.234 10.4036 9.29385C9.69065 6.24337 9.33419 4.71813 10.0827 3.69257C10.8313 2.66699 12.301 2.66699 15.2405 2.66699H17.4264C20.3658 2.66699 21.8356 2.66699 22.5841 3.69257C23.3326 4.71813 22.9762 6.24337 22.2633 9.29385C21.8098 11.234 21.5832 12.2041 20.9069 12.7689C20.2308 13.3337 19.296 13.3337 17.4264 13.3337Z" fill="#4DA2FE" stroke="#4DA2FE" stroke-width="2" stroke-linecap="round" stroke-linejoin="round"/>
<path d="M16.3334 13.333V17.333" stroke="#4DA2FE" stroke-width="2" stroke-linecap="round" stroke-linejoin="round"/>
</svg>
