<svg width="41" height="41" viewBox="0 0 41 41" fill="none" xmlns="http://www.w3.org/2000/svg">
<path fill-rule="evenodd" clip-rule="evenodd" d="M23.833 13.834V37.1673H13.833C9.11896 37.1673 6.76194 37.1673 5.29747 35.7028C3.83301 34.2383 3.83301 31.8813 3.83301 27.1673V13.834C3.83301 9.11993 3.83301 6.76292 5.29747 5.29845C6.76194 3.83398 9.11896 3.83398 13.833 3.83398C18.547 3.83398 20.904 3.83398 22.3685 5.29845C23.833 6.76292 23.833 9.11993 23.833 13.834ZM9.6665 11.416C9.25229 11.416 8.9165 11.7518 8.9165 12.166C8.9165 12.5802 9.25229 12.916 9.6665 12.916H11.3332C11.7474 12.916 12.0832 12.5802 12.0832 12.166C12.0832 11.7518 11.7474 11.416 11.3332 11.416H9.6665ZM16.3332 11.416C15.919 11.416 15.5832 11.7518 15.5832 12.166C15.5832 12.5802 15.919 12.916 16.3332 12.916H17.9998C18.4141 12.916 18.7498 12.5802 18.7498 12.166C18.7498 11.7518 18.4141 11.416 17.9998 11.416H16.3332ZM9.6665 18.0827C9.25229 18.0827 8.9165 18.4185 8.9165 18.8327C8.9165 19.2469 9.25229 19.5827 9.6665 19.5827H11.3332C11.7474 19.5827 12.0832 19.2469 12.0832 18.8327C12.0832 18.4185 11.7474 18.0827 11.3332 18.0827H9.6665ZM16.3332 18.0827C15.919 18.0827 15.5832 18.4185 15.5832 18.8327C15.5832 19.2469 15.919 19.5827 16.3332 19.5827H17.9998C18.4141 19.5827 18.7498 19.2469 18.7498 18.8327C18.7498 18.4185 18.4141 18.0827 17.9998 18.0827H16.3332ZM9.6665 24.7493C9.25229 24.7493 8.9165 25.0851 8.9165 25.4993C8.9165 25.9136 9.25229 26.2493 9.6665 26.2493H11.3332C11.7474 26.2493 12.0832 25.9136 12.0832 25.4993C12.0832 25.0851 11.7474 24.7493 11.3332 24.7493H9.6665ZM16.3332 24.7493C15.919 24.7493 15.5832 25.0851 15.5832 25.4993C15.5832 25.9136 15.919 26.2493 16.3332 26.2493H17.9998C18.4141 26.2493 18.7498 25.9136 18.7498 25.4993C18.7498 25.0851 18.4141 24.7493 17.9998 24.7493H16.3332Z" fill="#4DA2FE"/>
<path fill-rule="evenodd" clip-rule="evenodd" d="M23.833 13.834H30.4997C33.6423 13.834 35.2137 13.834 36.19 14.8103C37.1663 15.7866 37.1663 17.358 37.1663 20.5007V30.5007C37.1663 33.6433 37.1663 35.2147 36.19 36.191C35.2137 37.1673 33.6423 37.1673 30.4997 37.1673H23.833V13.834ZM29.6665 18.084C29.2523 18.084 28.9165 18.4198 28.9165 18.834C28.9165 19.2482 29.2523 19.584 29.6665 19.584H31.3332C31.7474 19.584 32.0832 19.2482 32.0832 18.834C32.0832 18.4198 31.7474 18.084 31.3332 18.084H29.6665ZM29.6665 24.7507C29.2523 24.7507 28.9165 25.0864 28.9165 25.5007C28.9165 25.9149 29.2523 26.2507 29.6665 26.2507H31.3332C31.7474 26.2507 32.0832 25.9149 32.0832 25.5007C32.0832 25.0864 31.7474 24.7507 31.3332 24.7507H29.6665Z" fill="#4DA2FE"/>
</svg>
