<svg width="18" height="19" viewBox="0 0 18 19" fill="none" xmlns="http://www.w3.org/2000/svg">
<path d="M8.99998 15.0877H15.75M11.25 3.83769L13.5 6.08769M12.282 2.80419C12.5805 2.50562 12.9855 2.33789 13.4077 2.33789C13.83 2.33789 14.2349 2.50562 14.5335 2.80419C14.8321 3.10276 14.9998 3.5077 14.9998 3.92994C14.9998 4.35218 14.8321 4.75712 14.5335 5.05569L5.52598 14.0639C5.34755 14.2424 5.127 14.3729 4.88473 14.4434L2.73073 15.0719C2.6662 15.0908 2.59779 15.0919 2.53266 15.0752C2.46754 15.0585 2.4081 15.0246 2.36057 14.9771C2.31303 14.9296 2.27915 14.8701 2.26246 14.805C2.24578 14.7399 2.24691 14.6715 2.26573 14.6069L2.89423 12.4529C2.9649 12.2109 3.09542 11.9907 3.27373 11.8124L12.282 2.80419Z" stroke="#737373" stroke-width="1.5" stroke-linecap="round" stroke-linejoin="round"/>
</svg>
