<svg width="32" height="32" viewBox="0 0 32 32" fill="none" xmlns="http://www.w3.org/2000/svg">
<path d="M6.66663 29.3337L7.90737 28.0929C8.6124 27.3879 8.96491 27.0354 9.40908 26.835C9.85325 26.6345 10.3508 26.6034 11.3459 26.5413L15.6825 26.2702C17.8138 26.137 18.8796 26.0703 19.8173 25.6201C20.7552 25.1697 21.4734 24.3795 22.9098 22.7994L26.6666 18.667H22L19.6094 21.0575C19.4505 21.2165 19.3709 21.2961 19.2882 21.3662C18.8629 21.7275 18.3349 21.9462 17.7788 21.9915C17.6705 22.0003 17.5581 22.0003 17.3333 22.0003C17.3333 21.3807 17.3333 21.071 17.2821 20.8134C17.0717 19.7555 16.2448 18.9286 15.1869 18.7182C14.9293 18.667 14.6196 18.667 14 18.667H12.9579C11.5646 18.667 10.8679 18.667 10.2146 18.835C9.72795 18.9601 9.26145 19.1533 8.82891 19.4089C8.24819 19.7521 7.75555 20.2447 6.77028 21.2301L2.66663 25.3337L6.5 29.5L6.66663 29.3337Z" fill="#4DA2FE"/>
<path d="M17.3333 22.0003C17.5581 22.0003 17.6705 22.0003 17.7788 21.9915C18.3349 21.9462 18.8629 21.7275 19.2882 21.3662C19.3709 21.2961 19.4505 21.2165 19.6094 21.0575L22 18.667H26.6666L22.9098 22.7994C21.4734 24.3795 20.7552 25.1697 19.8173 25.6201C18.8796 26.0703 17.8138 26.137 15.6825 26.2702L11.3459 26.5413C10.3508 26.6034 9.85325 26.6345 9.40908 26.835C8.96491 27.0354 8.6124 27.3879 7.90737 28.0929L6.66663 29.3337L6.5 29.5L2.66663 25.3337L6.77028 21.2301C7.75555 20.2447 8.24819 19.7521 8.82891 19.4089C9.26145 19.1533 9.72795 18.9601 10.2146 18.835C10.8679 18.667 11.5646 18.667 12.9579 18.667H14C14.6196 18.667 14.9293 18.667 15.1869 18.7182C16.2448 18.9286 17.0717 19.7555 17.2821 20.8134C17.3333 21.071 17.3333 21.3807 17.3333 22.0003ZM17.3333 22.0003H12.6666" stroke="white" stroke-linecap="round" stroke-linejoin="round"/>
<path d="M6.66663 15.3337C6.66663 9.44261 11.4422 4.66699 17.3333 4.66699L6.66663 15.3337ZM17.3333 4.66699C23.2244 4.66699 28 9.44261 28 15.3337L17.3333 4.66699ZM17.3333 4.66699V2.66699V4.66699Z" fill="#4DA2FE"/>
<path d="M6.66663 15.3337C6.66663 9.44261 11.4422 4.66699 17.3333 4.66699C23.2244 4.66699 28 9.44261 28 15.3337V18.5H6.66663V15.3337Z" fill="#4DA2FE"/>
<path d="M17.3333 4.66699C11.4422 4.66699 6.66663 9.44261 6.66663 15.3337V18.5H28V15.3337C28 9.44261 23.2244 4.66699 17.3333 4.66699ZM17.3333 4.66699V2.66699" stroke="white" stroke-width="2" stroke-linecap="round" stroke-linejoin="round"/>
<path d="M5.33337 18.667H29.3334" stroke="#00838F" stroke-width="2" stroke-linecap="round" stroke-linejoin="round"/>
</svg>
