<svg width="24" height="24" viewBox="0 0 24 24" fill="none" xmlns="http://www.w3.org/2000/svg">
<path d="M3.6073 8.03168L5.3543 6.51461C6.6129 5.42153 7.1063 4.83352 7.7879 5.04139C8.6378 5.30059 8.358 6.93609 8.358 7.48824C9.6794 7.48824 11.0532 7.38661 12.3557 7.59836C16.6555 8.29742 18 11.3566 18 14.6525C16.783 13.9065 15.5673 13.0746 14.1046 12.7289C12.2788 12.2973 10.2397 12.5032 8.358 12.5032C8.358 13.0554 8.6378 14.6909 7.7879 14.9501C7.0156 15.1856 6.6129 14.5699 5.3543 13.4769L3.6073 11.9598C2.5358 11.0293 2 10.564 2 9.99574C2 9.4275 2.5358 8.96223 3.6073 8.03168Z" stroke="#141B34" stroke-width="1.5" stroke-linecap="round" stroke-linejoin="round"/>
<path d="M13.4324 3C17.2926 3.00694 19.3141 3.10152 20.6059 4.39073C22 5.78202 22 8.02125 22 12.4997C22 16.9782 22 19.2174 20.6059 20.6087C19.2118 22 16.968 22 12.4805 22C7.9929 22 5.7491 22 4.355 20.6087C3.3844 19.64 3.0896 18.2603 3 16" stroke="#141B34" stroke-width="1.5" stroke-linecap="round" stroke-linejoin="round"/>
</svg>
