<svg width="80" height="80" viewBox="0 0 80 80" fill="none" xmlns="http://www.w3.org/2000/svg">
<path d="M79.5616 41.6714L79.56 41.6738C79.0677 42.5487 78.986 43.5965 79.3374 44.537C79.7545 45.6537 79.5576 46.908 78.8179 47.8429L78.8163 47.8445C78.1944 48.6305 77.9503 49.6511 78.1488 50.634V50.6356C78.3857 51.8051 77.9935 53.013 77.1154 53.8198C76.3774 54.4994 75.9747 55.4687 76.0156 56.4701V56.4717C76.0652 57.6636 75.4881 58.7938 74.4939 59.4526C73.6575 60.0073 73.1084 60.9022 72.9923 61.8987V61.9003C72.8546 63.0842 72.1078 64.1104 71.024 64.6051C70.1107 65.0229 69.4271 65.8209 69.1573 66.7879V66.7895C68.8364 67.9373 67.9399 68.8338 66.792 69.1548H66.7904C65.8235 69.4254 65.0246 70.1081 64.6076 71.0207C64.1121 72.1061 63.0867 72.8521 61.9029 72.9898H61.9013C60.9047 73.1058 60.0098 73.6557 59.4551 74.4914C58.7963 75.4863 57.6653 76.0635 56.4742 76.0139H56.4726C55.4705 75.9722 54.5011 76.3741 53.8231 77.1121C53.0163 77.991 51.8084 78.3832 50.639 78.147C49.656 77.9477 48.6346 78.1919 47.8486 78.8146L47.847 78.8162C46.9121 79.5558 45.6578 79.7535 44.5412 79.3357C43.6006 78.9843 42.5528 79.066 41.6779 79.5582L41.6755 79.5598C40.6382 80.1442 39.3711 80.1442 38.3329 79.5598L38.3305 79.5582C37.4556 79.066 36.4078 78.9843 35.4673 79.3357C34.3506 79.7527 33.0963 79.5558 32.1614 78.8162L32.1598 78.8146C31.3738 78.1927 30.3532 77.9485 29.3703 78.147H29.3687C28.1992 78.384 26.9913 77.9918 26.1845 77.1137C25.5057 76.3749 24.5363 75.9722 23.535 76.0139H23.5334C22.3415 76.0635 21.2113 75.4864 20.5525 74.4922C19.9978 73.6549 19.1037 73.1058 18.1063 72.9898H18.1047C16.9209 72.8521 15.8947 72.1053 15.4 71.0215C14.983 70.1073 14.1842 69.4246 13.2172 69.1548H13.2156C12.0678 68.8338 11.1713 67.9373 10.8503 66.7895V66.7879C10.5797 65.8209 9.89695 65.0221 8.98444 64.6051C7.90063 64.1096 7.15301 63.0834 7.01534 61.8995V61.8979C6.89927 60.9014 6.34936 60.0065 5.5137 59.4518C4.51954 58.7922 3.94242 57.662 3.99204 56.4701V56.4685C4.03367 55.4663 3.63184 54.497 2.89383 53.819C2.01574 53.0114 1.62272 51.8035 1.85885 50.634C2.05736 49.6503 1.81322 48.6297 1.19128 47.8429L1.18967 47.8413C0.45006 46.9064 0.252349 45.6521 0.670183 44.5354C1.02158 43.5949 0.939934 42.5471 0.447659 41.6722L0.446058 41.6698C-0.138269 40.6324 -0.138269 39.3653 0.446058 38.3271L0.447659 38.3247C0.939934 37.4499 1.02158 36.4021 0.670183 35.4615C0.25315 34.3449 0.45006 33.0906 1.18967 32.1557L1.19128 32.1541C1.81322 31.3681 2.05736 30.3475 1.85885 29.3645V29.3629C1.62192 28.1935 2.01414 26.9856 2.89223 26.1787C3.63024 25.4992 4.03287 24.5298 3.99204 23.5285V23.5269C3.94242 22.335 4.51954 21.2048 5.5137 20.546C6.35016 19.9913 6.89927 19.0964 7.01534 18.0998V18.0982C7.15301 16.9144 7.89983 15.8882 8.98364 15.3935C9.89695 14.9757 10.5805 14.1776 10.8503 13.2107V13.2091C11.1713 12.0612 12.0678 11.1647 13.2156 10.8438H13.2172C14.1842 10.5732 14.983 9.89043 15.4 8.97792C15.8955 7.89251 16.9209 7.14649 18.1047 7.00881H18.1063C19.1029 6.89275 19.9978 6.34284 20.5525 5.50717C21.2113 4.51221 22.3423 3.93509 23.5334 3.98472H23.535C24.5371 4.02634 25.5065 3.62452 26.1845 2.8865C26.9913 2.00761 28.1992 1.61539 29.3687 1.85152C30.3516 2.05084 31.373 1.8067 32.159 1.18395L32.1606 1.18235C33.0955 0.442736 34.3498 0.245025 35.4665 0.662859C36.407 1.01426 37.4548 0.93261 38.3297 0.440335L38.3321 0.438734C39.3695 -0.145594 40.6366 -0.145594 41.6747 0.438734L41.6771 0.440335C42.552 0.93261 43.5998 1.01426 44.5404 0.662859C45.657 0.245826 46.9113 0.442736 47.8462 1.18235L47.8478 1.18395C48.6338 1.8059 49.6544 2.05004 50.6374 1.85152H50.639C51.8084 1.61459 53.0163 2.00681 53.8231 2.8849C54.5019 3.62372 55.4713 4.02634 56.4726 3.98472H56.4742C57.6661 3.93509 58.7963 4.51221 59.4551 5.50637C60.0098 6.34364 60.9039 6.89275 61.9013 7.00881H61.9029C63.0867 7.14649 64.1129 7.89331 64.6076 8.97711C65.0246 9.89123 65.8235 10.574 66.7904 10.8438H66.792C67.9399 11.1647 68.8364 12.0612 69.1573 13.2091V13.2107C69.4279 14.1776 70.1107 14.9765 71.0232 15.3935C72.107 15.889 72.8546 16.9152 72.9923 18.099V18.1006C73.1084 19.0972 73.6583 19.9921 74.4939 20.5468C75.4881 21.2064 76.0652 22.3366 76.0156 23.5285V23.5301C75.9739 24.5322 76.3758 25.5016 77.1138 26.1795C77.9919 26.9872 78.3849 28.1951 78.1488 29.3645C77.9503 30.3483 78.1944 31.3689 78.8163 32.1557L78.8179 32.1573C79.5576 33.0922 79.7553 34.3465 79.3374 35.4631C78.986 36.4037 79.0677 37.4515 79.56 38.3263L79.5616 38.3287C80.1459 39.3661 80.1459 40.6332 79.5616 41.6714Z" fill="#2ECC71"/>
<path d="M20.248 50.87L33.0536 61.5816L60.0095 26.642L54.2479 22.0698L31.8882 52.3492L24.7914 46.0032L20.248 50.87Z" fill="white"/>
</svg>
