<svg width="32" height="32" viewBox="0 0 32 32" fill="none" xmlns="http://www.w3.org/2000/svg">
<path d="M4.66382 20.6879L5.3597 19.334H26.6027L27.3367 20.6879C29.2606 24.2367 29.7398 26.0109 29.0085 27.3392C28.2773 28.6673 26.3385 28.6673 22.4609 28.6673H9.53982C5.66222 28.6673 3.7234 28.6673 2.99215 27.3392C2.2609 26.0109 2.73998 24.2367 4.66382 20.6879Z" fill="#4DA2FE"/>
<path fill-rule="evenodd" clip-rule="evenodd" d="M26.6663 8.66732V19.334H5.33301V8.66732C5.33301 6.15316 5.33301 4.89608 6.11406 4.11504C6.8951 3.33398 8.15218 3.33398 10.6663 3.33398H21.333C23.8471 3.33398 25.1042 3.33398 25.8853 4.11504C26.6663 4.89608 26.6663 6.15316 26.6663 8.66732ZM18.2615 8.37139C18.4666 7.85861 18.2172 7.27664 17.7044 7.07152C17.1916 6.86641 16.6096 7.11583 16.4045 7.62861L13.7379 14.2953C13.5328 14.8081 13.7822 15.39 14.295 15.5951C14.8077 15.8003 15.3897 15.5508 15.5948 15.0381L18.2615 8.37139ZM21.3192 8.57587C20.9009 8.2153 20.2695 8.26212 19.9089 8.68045C19.5483 9.09879 19.5951 9.73022 20.0135 10.0908L21.24 11.148C21.3215 11.2183 21.3919 11.2789 21.4539 11.3333C21.3919 11.3877 21.3216 11.4484 21.24 11.5187L21.24 11.5187L20.0135 12.5759C19.5951 12.9364 19.5483 13.5679 19.9089 13.9862C20.2695 14.4045 20.9009 14.4514 21.3192 14.0908L22.5458 13.0336L22.5458 13.0336L22.583 13.0015L22.5831 13.0015C22.808 12.8077 23.047 12.6019 23.2217 12.4045C23.4194 12.1812 23.6663 11.8268 23.6663 11.3333C23.6663 10.8399 23.4194 10.4855 23.2217 10.2622C23.047 10.0648 22.808 9.85893 22.583 9.66518L22.5458 9.63309L22.5458 9.63306L21.3192 8.57587ZM11.9859 10.0908C12.4042 9.73023 12.451 9.09879 12.0905 8.68046C11.7299 8.26212 11.0985 8.21529 10.6801 8.57587L9.45359 9.63305L9.45357 9.63307L9.41645 9.66505C9.19145 9.85885 8.9524 10.0647 8.77759 10.2622C8.57993 10.4855 8.33301 10.8399 8.33301 11.3333C8.33301 11.8267 8.57991 12.1811 8.77759 12.4044C8.95241 12.6019 9.19149 12.8079 9.41651 13.0017L9.45358 13.0336L9.45359 13.0336L10.6801 14.0908C11.0985 14.4514 11.7299 14.4045 12.0905 13.9862C12.451 13.5679 12.4042 12.9364 11.9859 12.5759L10.7593 11.5187L10.7593 11.5187C10.6778 11.4484 10.6074 11.3877 10.5454 11.3333C10.6074 11.2789 10.6778 11.2183 10.7593 11.148L10.7594 11.148L11.9859 10.0908Z" fill="#4DA2FE"/>
</svg>
