<svg width="41" height="41" viewBox="0 0 41 41" fill="none" xmlns="http://www.w3.org/2000/svg">
<path fill-rule="evenodd" clip-rule="evenodd" d="M34.3258 13.2522C34.0605 12.9627 33.6092 12.9894 33.3472 13.2513C31.887 14.7116 29.4498 14.6422 27.904 13.0963C26.3582 11.5504 26.2887 9.1134 27.749 7.6531C28.011 7.39118 28.0377 6.9399 27.7482 6.67443C26.0527 5.11993 24.7972 4.25962 23.4068 3.9763C22.6068 3.8133 21.7927 3.79012 21.0007 3.90778C19.2804 4.16344 17.8225 5.33382 15.5158 7.58409C15.8303 7.58814 16.1436 7.71014 16.3835 7.9501L33.0502 24.6168C33.2902 24.8567 33.4122 25.17 33.4162 25.4845C35.6665 23.1778 36.8369 21.7199 37.0925 19.9997C37.2102 19.2077 37.187 18.3935 37.024 17.5935C36.7407 16.2032 35.8803 14.9477 34.3258 13.2522ZM32.1635 26.7506C31.8445 26.7499 31.5258 26.6279 31.2824 26.3845L14.6158 9.71787C14.3724 9.47452 14.2504 9.15581 14.2496 8.83687C14.058 9.0281 13.8609 9.22521 13.6579 9.42827L9.42729 13.6589C5.95902 17.1271 4.22489 18.8613 3.90682 21.0017C3.78914 21.7937 3.81232 22.6078 3.97532 23.4078C4.2586 24.798 5.11877 26.0533 6.67292 27.7485C6.93869 28.0385 7.39052 28.0117 7.65272 27.7495C9.11304 26.2892 11.55 26.3585 13.0959 27.9043C14.6418 29.4503 14.7112 31.8873 13.2509 33.3477C12.9887 33.6098 12.9619 34.0617 13.2518 34.3273C14.947 35.8815 16.2023 36.7417 17.5925 37.025C18.3925 37.188 19.2067 37.2112 19.9987 37.0935C22.139 36.7755 23.8732 35.0413 27.3415 31.573L31.572 27.3425C31.7751 27.1394 31.9722 26.9423 32.1635 26.7506Z" fill="#4DA2FE"/>
</svg>
