<svg width="20" height="20" viewBox="0 0 20 20" fill="none" xmlns="http://www.w3.org/2000/svg">
<path d="M10 18.3327C14.6024 18.3327 18.3334 14.6017 18.3334 9.99935C18.3334 5.39697 14.6024 1.66602 10 1.66602C5.39765 1.66602 1.66669 5.39697 1.66669 9.99935C1.66669 14.6017 5.39765 18.3327 10 18.3327Z" stroke="#404040"/>
<path d="M10.0065 8.75635C9.31614 8.75635 8.75647 9.31601 8.75647 10.0063C8.75647 10.6967 9.31614 11.2563 10.0065 11.2563C10.6968 11.2563 11.2565 10.6967 11.2565 10.0063C11.2565 9.31601 10.6968 8.75635 10.0065 8.75635ZM10.0065 8.75635V5.83203M12.5122 12.516L10.8884 10.8922" stroke="#404040" stroke-linecap="round" stroke-linejoin="round"/>
</svg>
