<svg width="33" height="32" viewBox="0 0 33 32" fill="none" xmlns="http://www.w3.org/2000/svg">
<path d="M17.833 14.6667L24.4997 8" stroke="#00838F" stroke-width="2"/>
<path d="M25.8337 9.33268L23.167 6.66602L26.5003 4.66602L27.8337 5.99935L25.8337 9.33268Z" fill="#4DA2FE" stroke="#00838F" stroke-width="2" stroke-linejoin="round"/>
<path d="M5.86684 11.9665C4.51888 10.6185 4.16793 8.65114 4.81397 6.98064L6.70997 8.87664H9.37664V6.20997L7.48064 4.31397C9.15114 3.66793 11.1185 4.01888 12.4665 5.36684C13.8149 6.71529 14.1657 8.68365 13.5186 10.3546L22.1455 18.9813C23.8164 18.3343 25.7847 18.6851 27.1332 20.0335C28.4811 21.3815 28.8321 23.3488 28.186 25.0193L26.29 23.1233H23.6233V25.79L25.5193 27.686C23.8488 28.3321 21.8815 27.9811 20.5335 26.6332C19.186 25.2857 18.8348 23.3193 19.4799 21.6492L10.8508 13.0201C9.1807 13.6652 7.21428 13.3139 5.86684 11.9665Z" fill="#4DA2FE"/>
<path d="M16.771 19.3326L9.29895 26.8048C8.59519 27.5085 7.45419 27.5085 6.75043 26.8048L5.6948 25.7492C4.99106 25.0455 4.99106 23.9044 5.6948 23.2006L13.1669 15.7285" fill="#4DA2FE"/>
</svg>
