<svg width="65" height="64" viewBox="0 0 65 64" fill="none" xmlns="http://www.w3.org/2000/svg">
<rect x="0.666626" width="64" height="64" rx="32" fill="white"/>
<path d="M35.3333 20H29.9999C24.9716 20 22.4575 20 20.8953 21.5621C19.3333 23.1242 19.3333 25.6383 19.3333 30.6667C19.3333 35.6949 19.3333 38.2092 20.8953 39.7712C22.4575 41.3333 24.9716 41.3333 29.9999 41.3333H35.3333C40.3615 41.3333 42.8758 41.3333 44.4378 39.7712C45.9999 38.2092 45.9999 35.6949 45.9999 30.6667C45.9999 25.6383 45.9999 23.1242 44.4378 21.5621C42.8758 20 40.3615 20 35.3333 20Z" fill="#4DA2FE" stroke="#4DA2FE" stroke-width="2" stroke-linecap="round"/>
<path d="M40.6666 41.333L42 43.9997" stroke="#4DA2FE" stroke-width="2" stroke-linecap="round" stroke-linejoin="round"/>
<path d="M24.6666 41.333L23.3333 43.9997" stroke="#4DA2FE" stroke-width="2" stroke-linecap="round" stroke-linejoin="round"/>
</svg>
