<svg width="32" height="32" viewBox="0 0 32 32" fill="none" xmlns="http://www.w3.org/2000/svg">
<path d="M6.36014 21.5706C3.84499 22.9184 -2.74958 25.6706 1.26696 29.1146C3.22901 30.7968 5.41422 32 8.16156 32H23.8384C26.5858 32 28.7711 30.7968 30.733 29.1146C34.7496 25.6706 28.1551 22.9184 25.6399 21.5706C19.7419 18.4098 12.2581 18.4098 6.36014 21.5706Z" fill="#0A0A0A"/>
<path d="M24 7.19999C24 11.1764 20.4183 14.4 16 14.4C11.5817 14.4 8.00001 11.1764 8.00001 7.19999C8.00001 3.22355 11.5817 0 16 0C20.4183 0 24 3.22355 24 7.19999Z" fill="#0A0A0A"/>
</svg>
