<svg width="33" height="28" viewBox="0 0 33 28" fill="none" xmlns="http://www.w3.org/2000/svg">
<path d="M6.03118 22.5H5.45928C4.11784 22.5 3.05081 21.8888 2.09274 21.0342C-0.341041 18.863 5.38018 16.6667 7.33329 16.6667M9.66663 5.08023C9.40168 5.02768 9.12658 5 8.84436 5C6.72114 5 4.99996 6.56701 4.99996 8.5C4.99996 10.433 6.72114 12 8.84436 12C9.12658 12 9.40168 11.9723 9.66663 11.9197" stroke="#525252" stroke-width="1.5" stroke-linecap="round"/>
<path d="M27.3021 22.5H27.874C29.2154 22.5 30.2824 21.8888 31.2405 21.0342C33.6743 18.863 27.9531 16.6667 26 16.6667M23.6666 5.08023C23.9316 5.02768 24.2067 5 24.4889 5C26.6121 5 28.3333 6.56701 28.3333 8.5C28.3333 10.433 26.6121 12 24.4889 12C24.2067 12 23.9316 11.9723 23.6666 11.9197" stroke="#525252" stroke-width="1.5" stroke-linecap="round"/>
<path d="M11.2282 18.7961C9.85273 19.5332 6.24633 21.0383 8.44286 22.9216C9.51586 23.8417 10.7109 24.4997 12.2133 24.4997H20.7867C22.2891 24.4997 23.4841 23.8417 24.5571 22.9216C26.7537 21.0383 23.1473 19.5332 21.7718 18.7961C18.5463 17.0675 14.4537 17.0675 11.2282 18.7961Z" stroke="#525252" stroke-width="1.5"/>
<path d="M21.1667 8.74967C21.1667 11.327 19.0773 13.4163 16.5 13.4163C13.9227 13.4163 11.8333 11.327 11.8333 8.74967C11.8333 6.17234 13.9227 4.08301 16.5 4.08301C19.0773 4.08301 21.1667 6.17234 21.1667 8.74967Z" stroke="#525252" stroke-width="1.5"/>
</svg>
