<svg width="25" height="24" viewBox="0 0 25 24" fill="none" xmlns="http://www.w3.org/2000/svg">
<path d="M16.5 13L21.723 16.482C21.7983 16.5321 21.8858 16.5608 21.9761 16.5652C22.0664 16.5695 22.1563 16.5492 22.236 16.5065C22.3157 16.4639 22.3824 16.4003 22.4289 16.3228C22.4754 16.2452 22.5 16.1564 22.5 16.066V7.87C22.5 7.78202 22.4768 7.6956 22.4328 7.61945C22.3887 7.5433 22.3253 7.48012 22.2491 7.4363C22.1728 7.39248 22.0863 7.36956 21.9983 7.36985C21.9103 7.37015 21.824 7.39366 21.748 7.438L16.5 10.5M4.5 6H14.5C15.6046 6 16.5 6.89543 16.5 8V16C16.5 17.1046 15.6046 18 14.5 18H4.5C3.39543 18 2.5 17.1046 2.5 16V8C2.5 6.89543 3.39543 6 4.5 6Z" stroke="#262626" stroke-width="1.5" stroke-linecap="round" stroke-linejoin="round"/>
</svg>
